<?xml version="1.0" encoding="UTF-8"?>
<svg width="323px" height="30px" viewBox="0 0 323 30" version="1.1" xmlns="http://www.w3.org/2000/svg" xmlns:xlink="http://www.w3.org/1999/xlink">
    <!-- Generator: Sketch 55.2 (78181) - https://sketchapp.com -->
    <title>Group 5</title>
    <desc>Created with Sketch.</desc>
    <defs>
        <linearGradient x1="50%" y1="14.0517094%" x2="50%" y2="83.9477461%" id="linearGradient-1">
            <stop stop-color="#D64288" offset="0%"></stop>
            <stop stop-color="#6B0736" offset="100%"></stop>
        </linearGradient>
    </defs>
    <g id="Final-pages" stroke="none" stroke-width="1" fill="none" fill-rule="evenodd">
        <g id="4-DP-About-us" transform="translate(-799.000000, -733.000000)">
            <g id="Group-5" transform="translate(799.000000, 733.000000)">
                <path d="M156.958928,20.3443784 C156.894004,20.3776216 156.828268,20.3946486 156.773082,20.4027568 L156.743866,20.4068108 L156.674072,20.4165405 L156.536918,20.436 L156.26667,20.4684324 L155.727795,20.5162703 C155.368275,20.538973 155.009567,20.5446486 154.650046,20.5462703 C153.931006,20.543027 153.211966,20.4935676 152.495361,20.406 C151.065396,20.2073514 149.647604,19.8311351 148.305288,19.2343784 C146.960536,18.6627568 145.624712,17.7732973 144.736868,16.3941081 C144.30025,15.7097838 144.008901,14.8868108 143.982119,14.0265405 C143.952092,13.1711351 144.178516,12.2897838 144.671943,11.5535676 C144.921092,11.2073514 145.271685,10.8424865 145.579265,10.6251892 C145.88928,10.3811351 146.233381,10.1678919 146.601016,9.98302703 C147.336288,9.62789189 148.24929,9.40086486 149.148496,9.60113514 C150.046079,9.78275676 150.793524,10.3073514 151.334021,10.8903243 C151.881011,11.4781622 152.288413,12.1332973 152.612225,12.8005946 C153.203039,14.0411351 153.86527,15.1924865 154.629758,16.3203243 C154.999828,16.8870811 155.398303,17.4376216 155.811386,17.9768108 L156.448459,18.7722162 L156.773893,19.1622162 L156.938639,19.3543784 L157.021418,19.4476216 L157.062808,19.4938378 C157.070112,19.5108649 157.053881,19.4646486 157.16831,19.6268108 C157.251901,19.7573514 157.262451,19.9478919 157.229989,20.0541081 C157.19428,20.1473514 157.093647,20.2803243 156.958928,20.3443784 Z M156.27722,19.7403243 C156.230149,19.8319459 156.224469,20.0070811 156.292639,20.123027 C156.391649,20.2697838 156.359999,20.2081622 156.351883,20.2097838 L156.300755,20.1643784 L156.201745,20.0719459 L156.006971,19.8887027 L155.624727,19.5149189 C155.377202,19.2603243 155.134546,19.0016757 154.898383,18.7373514 C154.425245,18.2103243 153.967526,17.6670811 153.534966,17.1027568 C152.680396,15.9773514 151.904546,14.7465405 151.243127,13.5116757 C150.625531,12.4032973 149.796931,11.3687027 148.831989,11.213027 C148.362097,11.1100541 147.849192,11.2349189 147.346838,11.4814054 C147.098501,11.6127568 146.850976,11.7676216 146.618871,11.9581622 C146.362418,12.1495135 146.244742,12.3043784 146.081619,12.5151892 C145.500544,13.3576216 145.51921,14.5665405 146.135994,15.5305946 C146.43627,16.0178919 146.853411,16.4573514 147.333853,16.8441081 C147.83783,17.2081622 148.362908,17.5527568 148.958592,17.8357297 C150.12967,18.4243784 151.403004,18.8265405 152.712858,19.0754595 C153.366162,19.2068108 154.030016,19.3041081 154.697928,19.3584324 C155.03229,19.3835676 155.367464,19.4014054 155.702637,19.4078919 L156.203368,19.4143784 L156.451705,19.4103243 L156.573438,19.4054595 L156.634305,19.403027 C156.634305,19.403027 156.655406,19.4014054 156.638363,19.4038378 C156.592916,19.4103243 156.53773,19.4265405 156.484167,19.4581622 C156.370549,19.5197838 156.291828,19.6503243 156.27722,19.7403243 Z M165.164508,19.7405676 C165.149088,19.6505676 165.071179,19.520027 164.957561,19.4584054 C164.903186,19.4267838 164.848001,19.4113784 164.804176,19.4048919 C164.785511,19.4024595 164.807423,19.4040811 164.807423,19.4040811 L164.867478,19.4073243 L164.989212,19.413 L165.23836,19.4194865 L165.739091,19.4186757 C166.074264,19.4146216 166.409438,19.3984054 166.743799,19.3765135 C167.413335,19.3270541 168.078812,19.2354324 168.734551,19.1089459 C170.04684,18.8616486 171.326666,18.4692162 172.504237,17.8821892 C173.676938,17.313 174.739267,16.5581351 175.352805,15.560027 C175.980139,14.5846216 176.006109,13.3465135 175.409614,12.4813784 C175.24081,12.2673243 175.109337,12.1124595 174.852885,11.9194865 C174.618345,11.7273243 174.368385,11.5708378 174.11599,11.4378649 C173.606332,11.1881351 173.082877,11.0608378 172.600001,11.1670541 C171.611523,11.3316486 170.77643,12.3784054 170.167762,13.4957027 C169.5104,14.7321892 168.736985,15.9613784 167.888908,17.0908378 C167.461217,17.6575946 167.005121,18.2008378 166.533606,18.7302973 C166.299066,18.9954324 166.058033,19.2540811 165.812131,19.5111081 L165.432322,19.8865135 L165.239171,20.0713784 L165.140161,20.1638108 L165.089033,20.210027 C165.080918,20.2084054 165.049267,20.2692162 165.148277,20.1232703 C165.216448,20.0073243 165.21239,19.8313784 165.164508,19.7405676 Z M164.210928,20.0543514 C164.179277,19.9481351 164.189827,19.7575946 164.273418,19.6262432 C164.387847,19.4648919 164.371616,19.5111081 164.37892,19.4932703 L164.42031,19.4486757 L164.504712,19.3546216 L164.671081,19.1648919 L164.998139,18.7773243 C165.215636,18.5162432 165.430699,18.2527297 165.638458,17.9843514 C166.055598,17.4475946 166.454073,16.8962432 166.829825,16.3327297 C167.600805,15.2081351 168.263847,14.0551622 168.860342,12.8162432 C169.181719,12.1505676 169.601294,11.5075946 170.140169,10.9213784 C170.676609,10.3432703 171.415938,9.82516216 172.302159,9.64759459 C173.189191,9.45056757 174.090832,9.67354054 174.818799,10.0262432 C175.183189,10.2094865 175.524855,10.4219189 175.832435,10.6643514 C176.138392,10.8792162 176.476812,11.2440811 176.718656,11.5878649 C177.203968,12.3127297 177.429581,13.1802973 177.401176,14.0251622 C177.376018,14.8740811 177.089538,15.6873243 176.657789,16.365973 C175.784553,17.7378649 174.448729,18.6102973 173.114528,19.1884054 C171.779516,19.7875946 170.368217,20.1727297 168.940686,20.3713784 C168.225704,20.4654324 167.509098,20.5197568 166.79087,20.5286757 C166.432161,20.5302973 166.073453,20.5270541 165.714744,20.5051622 L165.175058,20.463 L164.90481,20.433 L164.767656,20.4151622 L164.697862,20.4054324 L164.669458,20.4013784 C164.61346,20.3948919 164.547724,20.3770541 164.482799,20.3446216 C164.348081,20.2805676 164.247448,20.1475946 164.210928,20.0543514 Z M133.282704,16.8038108 C132.412714,17.3608378 131.702601,18.2194865 131.374731,19.1673243 C131.037935,20.1240811 131.128018,21.1724595 131.459945,22.1340811 C131.523246,22.3797568 131.648226,22.6116486 131.751294,22.8467838 C131.805669,22.9627297 131.855985,23.0851622 131.912794,23.1946216 L132.096206,23.4921892 C132.361586,23.8716486 132.713802,24.1765135 133.126073,24.3905676 C133.949804,24.8316486 134.977236,24.8932703 135.941367,24.7205676 C137.882613,24.3881351 139.66804,22.9927297 140.055965,21.183 C140.468236,19.3757027 139.482194,17.3478649 138.227525,15.8478649 C136.943641,14.3454324 134.977236,13.6732703 132.932922,13.6221892 C130.877246,13.5557027 128.766385,14.0162432 126.717201,14.6316486 C122.595299,15.8892162 118.686025,17.8554324 114.668003,19.6797568 C112.635051,20.600027 110.542043,21.3443514 108.444978,22.0408378 C106.342231,22.7275946 104.217573,23.343 102.066133,23.8562432 C97.7673118,24.8867838 93.3865229,25.6311081 88.957852,25.8435405 C84.5462239,26.0438108 80.0290932,25.7381351 75.819543,24.2681351 C73.7249123,23.5375946 71.7244224,22.503 69.985254,21.1286757 C68.2387817,19.7632703 66.797455,18.0378649 65.7067214,16.1324595 C65.7034751,16.125973 65.7051271,16.1170541 65.7124023,16.113 C65.7188947,16.1105676 65.7270103,16.1113784 65.7310681,16.1178649 C66.9062038,17.973 68.4262515,19.5889459 70.1800279,20.8740811 C71.9354274,22.1592162 73.9245555,23.0973243 75.9964626,23.7362432 C80.1581309,24.9994865 84.5721937,25.190027 88.9026661,24.9013784 C93.2461234,24.5908378 97.544945,23.7557027 101.756118,22.6408378 C105.954307,21.4967838 110.146814,20.1784054 114.079623,18.3857027 C118.031098,16.5467838 121.978515,14.5019189 126.25786,13.1462432 C128.395503,12.4846216 130.629721,11.9551622 132.97837,12.0013784 C134.146201,12.0248919 135.345684,12.2202973 136.475372,12.6784054 C137.605061,13.130027 138.642231,13.8638108 139.437558,14.7824595 C140.232073,15.7157027 140.823699,16.7138108 141.248143,17.8538108 C141.674211,18.980027 141.818669,20.2854324 141.525696,21.530027 C141.219739,22.7754324 140.452005,23.8748919 139.469209,24.6143514 C138.494528,25.3692162 137.33887,25.833 136.141822,26.0016486 C134.951267,26.1686757 133.664947,26.0308378 132.566098,25.3797568 C132.021543,25.0586757 131.545159,24.6013784 131.211608,24.0597568 C131.050108,23.780027 130.921882,23.5002973 130.834234,23.2302973 C130.736847,22.9554324 130.620794,22.6911081 130.564797,22.3984054 C130.265332,21.2770541 130.248289,20.0097568 130.730355,18.9151622 C131.20187,17.8148919 132.072671,16.9732703 133.104973,16.4494865 C133.20236,16.400027 133.321659,16.4389459 133.370352,16.5362432 C133.417422,16.6270541 133.385772,16.7373243 133.302181,16.7908378 L133.282704,16.8038108 Z M72.1151063,12.7426216 C71.1712646,13.3928919 70.8807269,14.6123514 71.100659,15.6193784 C71.212654,16.1277568 71.4488173,16.6069459 71.8059028,16.9588378 C72.1589304,17.3155946 72.6117796,17.5401892 73.0922219,17.6528919 C74.0871917,17.8377568 75.1105661,17.6237027 75.8571992,16.9612703 C76.6143827,16.3304595 77.1232294,15.411 77.2814832,14.4566757 C77.4551565,13.5007297 77.2587595,12.5107297 76.7637093,11.6747838 C76.2637897,10.838027 75.5333877,10.1285676 74.6771942,9.55856757 C72.9583148,8.40316216 70.854757,7.76586486 68.8518324,7.7682973 C67.848747,7.81532432 66.852154,7.9937027 65.9513249,8.40802703 C65.0602344,8.83289189 64.2689656,9.43775676 63.6383852,10.1845135 C62.3829053,11.7015405 61.9089555,13.7585676 62.2473751,15.7758649 C62.5752445,17.8750541 63.1960862,19.9223514 64.5181138,21.4937027 C65.8076791,23.0828919 67.6198877,24.2326216 69.5895384,25.0612703 C71.563247,25.893973 73.6870937,26.4534324 75.8482721,26.8361351 C78.0013349,27.2601892 80.2055259,27.4782973 82.4072822,27.6882973 C86.8294606,28.0774865 91.2540736,28.1650541 95.6608324,27.7093784 C104.445134,26.7688378 113.161265,24.2220811 120.902714,19.7593784 C117.197953,22.2647838 113.089847,24.1401892 108.880297,25.6774865 C104.654516,27.1912703 100.255061,28.2412703 95.7866239,28.8064054 C91.3206214,29.3901892 86.7775209,29.4201892 82.2985334,29.1445135 C81.1753374,29.0569459 80.0497068,29.0172162 78.9289455,28.8582973 C77.8073726,28.7318108 76.6849882,28.6004595 75.5674731,28.3872162 C73.3316314,28.0215405 71.0990359,27.4726216 68.9467847,26.601 C66.8058952,25.7407297 64.7096415,24.4661351 63.1709279,22.5777568 C61.5908249,20.7072162 60.8669153,18.3088378 60.5073952,16.0369459 C60.089443,13.6693784 60.6437369,10.9847838 62.2579254,9.04451351 C63.0711063,8.08775676 64.0969153,7.32721622 65.2282269,6.80667568 C66.3692771,6.29505405 67.6069028,6.08262162 68.8282972,6.04451351 C69.4377771,6.07289189 70.0529379,6.07045946 70.643752,6.21235135 C71.2467394,6.29505405 71.816453,6.48397297 72.3869781,6.66883784 C72.9623726,6.83991892 73.4833927,7.13262162 74.0303827,7.36127027 C74.5465334,7.65964865 75.0716113,7.93937838 75.5593575,8.29208108 C76.5445887,8.98045946 77.4113324,9.90559459 77.9972771,11.0164054 C78.5824103,12.128027 78.7788073,13.4731622 78.487458,14.7015405 C78.1969204,15.9291081 77.4721992,17.0277568 76.4609982,17.7582973 C75.4676515,18.5350541 74.0620334,18.7126216 72.9015058,18.3582973 C72.3115033,18.1669459 71.7612671,17.823973 71.3684731,17.343973 C70.9716214,16.8655946 70.7638626,16.2696486 70.6989379,15.6834324 C70.55935,14.5158649 71.093355,13.2591081 72.1151063,12.7426216 Z M59.4630015,20.9433243 C56.9325643,17.2054865 53.0273482,14.5873784 48.8332176,13.3071081 C46.7337176,12.626027 44.5189764,12.3795405 42.3188432,12.3122432 L40.6624538,12.3033243 C40.1203332,12.3527838 39.5684739,12.3544054 39.0377151,12.446027 C37.9615894,12.5668378 36.9106221,12.8044054 35.9456799,13.191973 C34.9807377,13.5779189 34.1042553,14.1252162 33.4371548,14.8427838 C32.7903432,15.5708919 32.3277553,16.449 32.1824864,17.4162973 C31.8740945,19.3468378 32.6962025,21.4857568 34.2024538,22.8317027 C34.9596372,23.4965676 35.8791322,23.9903514 36.8862754,24.1314324 C37.3821372,24.2246757 37.9007226,24.1930541 38.4460894,24.1541351 L38.8510568,24.1314324 L39.2349236,24.0552162 C39.4865065,23.9968378 39.7648709,23.9757568 39.9839915,23.8622432 C40.2152854,23.7657568 40.469303,23.6927838 40.6470342,23.5338649 C40.7411749,23.4625135 40.8596623,23.4081892 40.9416296,23.3254865 L41.1721121,23.0562973 C41.4350568,22.671973 41.5965568,22.1765676 41.5535442,21.6422432 C41.5097201,20.576027 41.0649864,19.4903514 40.5098809,18.506027 C41.2337905,19.3825135 41.8611246,20.3895405 42.0818683,21.5903514 C42.2003558,22.1871081 42.1037804,22.8617027 41.7945769,23.4462973 L41.5145894,23.8614324 C41.4123332,23.9903514 41.2776146,24.0835946 41.1566925,24.1954865 C40.9156598,24.4346757 40.6267452,24.5554865 40.3443231,24.7030541 C40.0635241,24.8717027 39.766494,24.9244054 39.4727101,25.0217027 L39.0295995,25.1506216 L38.5856774,25.2211622 C38.2878357,25.2617027 37.9964864,25.3241351 37.688906,25.3468378 C37.3764563,25.3517027 37.0607603,25.3792703 36.7466874,25.3354865 C35.4822804,25.2414324 34.2633206,24.7184595 33.2756548,23.931973 C31.3344085,22.3387297 30.160896,19.7684595 30.5317779,17.1714324 C30.7062628,15.8862973 31.2987,14.6408919 32.1751824,13.6857568 C33.0646497,12.7371081 34.1740492,12.0706216 35.3183457,11.619 C36.4667,11.1673784 37.6580668,10.9030541 38.8429412,10.7871081 C39.4361899,10.701973 40.027004,10.7125135 40.6186296,10.6752162 L42.3740291,10.7254865 C44.7072578,10.8349459 47.0534714,11.2144054 49.2576623,12.0349459 C53.6652327,13.6144054 57.5590869,16.7198108 59.6837452,20.8298108 C59.715396,20.8914324 59.6918608,20.9652162 59.630994,20.9968378 C59.5741849,21.026027 59.5060141,21.0073784 59.4711171,20.9562973 L59.4630015,20.9433243 Z M20.6938309,21.3882162 C18.2697078,21.3882162 16.3041148,19.4244324 16.3041148,17.0025405 C16.3041148,14.5806486 18.2697078,12.6168649 20.6938309,12.6168649 C23.117954,12.6168649 25.083547,14.5806486 25.083547,17.0025405 C25.083547,19.4244324 23.117954,21.3882162 20.6938309,21.3882162 Z M12.4164284,17.0025405 C12.4164284,18.3176757 11.3492299,19.3838919 10.0328832,19.3838919 C8.71734799,19.3838919 7.6501495,18.3176757 7.6501495,17.0025405 C7.6501495,15.6874054 8.71734799,14.6211892 10.0328832,14.6211892 C11.3492299,14.6211892 12.4164284,15.6874054 12.4164284,17.0025405 Z M3.76238191,17.0025405 C3.76238191,18.0403784 2.91998492,18.882 1.88119095,18.882 C0.842396985,18.882 2.10942375e-13,18.0403784 2.10942375e-13,17.0025405 C2.10942375e-13,15.9647027 0.842396985,15.1230811 1.88119095,15.1230811 C2.91998492,15.1230811 3.76238191,15.9647027 3.76238191,17.0025405 Z M159.953577,20.2735135 C159.857813,20.2540541 159.700371,20.292973 159.612722,20.3837838 C159.573768,20.412973 159.525886,20.4989189 159.535624,20.4818919 L159.544552,20.4608108 L159.579448,20.3789189 L159.647619,20.2143243 L159.782338,19.8827027 L160.046094,19.2154054 L160.571172,17.8832432 C160.911215,16.9905405 161.232592,16.092973 161.526376,15.1889189 C162.134232,13.3913514 162.658499,11.5710811 163.01883,9.75567568 C163.338584,7.96054054 163.563386,6.07540541 163.13326,4.57216216 C162.914951,3.83189189 162.552185,3.28621622 162.015745,2.95378378 C161.48174,2.61081081 160.729426,2.4672973 159.915433,2.45837838 C159.100629,2.4672973 158.349938,2.61324324 157.81918,2.95621622 C157.285175,3.28945946 156.926466,3.83675676 156.712215,4.57945946 C156.291016,6.08675676 156.526368,7.97108108 156.852614,9.76540541 C157.22025,11.5791892 157.751009,13.3978378 158.365358,15.192973 C158.662388,16.097027 158.9862,16.992973 159.328677,17.8848649 L159.857813,19.2162162 L160.124004,19.8827027 L160.260345,20.2135135 L160.328516,20.3781081 L160.363413,20.4591892 L160.37234,20.4802703 C160.381268,20.4964865 160.334197,20.4121622 160.294431,20.3821622 C160.206783,20.2921622 160.04934,20.2540541 159.953577,20.2735135 Z M159.572144,21.0867568 C159.525886,21.0437838 159.473946,20.9489189 159.473946,20.9489189 L159.461773,20.9294595 L159.413079,20.8508108 L159.317315,20.6935135 L159.128222,20.3789189 L158.756529,19.7464865 L158.063459,18.4564865 C157.612232,17.5897297 157.178861,16.7132432 156.769024,15.8221622 C155.973697,14.0294595 155.26683,12.1840541 154.766911,10.2389189 C154.514516,9.26675676 154.320554,8.26540541 154.22966,7.22675676 C154.142823,6.18891892 154.133084,5.10486486 154.409825,3.97054054 C154.669524,2.85162162 155.380448,1.63864865 156.486602,0.930810811 C157.583016,0.213243243 158.810092,0.0251351351 159.91381,1.687539e-13 C161.017529,0.0243243243 162.242981,0.210810811 163.340207,0.922702703 C164.446361,1.62405405 165.165401,2.83054054 165.431592,3.94864865 C165.716448,5.08216216 165.712391,6.16783784 165.630423,7.20567568 C165.54521,8.24513514 165.355305,9.24810811 165.106157,10.2210811 C164.615165,12.1686486 163.913979,14.0164865 163.124333,15.8116216 C162.717742,16.7051351 162.286805,17.5832432 161.838825,18.4508108 L161.149813,19.7432432 L160.779742,20.3756757 L160.591461,20.6918919 L160.495697,20.8491892 L160.447815,20.9278378 L160.435642,20.9472973 C160.438888,20.9432432 160.383702,21.0421622 160.338255,21.0851351 C160.235999,21.2027027 160.065572,21.2691892 159.9552,21.2756757 C159.845639,21.2691892 159.674401,21.2027027 159.572144,21.0867568 Z M189.659432,16.4498108 C190.692545,16.9735946 191.563347,17.8152162 192.034862,18.9154865 C192.516927,20.0100811 192.499884,21.2765676 192.20042,22.3987297 C192.145234,22.6906216 192.028369,22.9549459 191.930982,23.2298108 C191.843334,23.4998108 191.715108,23.7795405 191.553608,24.0600811 C191.220058,24.6017027 190.743673,25.0581892 190.199118,25.3800811 C189.100269,26.0303514 187.81395,26.1681892 186.623394,26.0011622 C185.426347,25.8325135 184.269877,25.3695405 183.295196,24.6138649 C182.313211,23.8744054 181.545477,22.7757568 181.23952,21.5303514 C180.946548,20.2849459 181.090193,18.9795405 181.517073,17.8533243 C181.941518,16.7133243 182.533143,15.716027 183.326847,14.781973 C184.122985,13.8641351 185.159344,13.1295405 186.289844,12.6787297 C187.419533,12.2198108 188.619015,12.0252162 189.786847,12.0017027 C192.135495,11.9546757 194.369714,12.4841351 196.507357,13.1465676 C200.786701,14.5022432 204.734118,16.5462973 208.685593,18.386027 C212.618402,20.1787297 216.810098,21.4971081 221.008286,22.6411622 C225.220271,23.756027 229.519093,24.5903514 233.86255,24.9017027 C238.193834,25.1895405 242.607085,24.9998108 246.768754,23.7357568 C248.839849,23.0968378 250.828977,22.1595405 252.584377,20.8735946 C254.338153,19.5884595 255.859013,17.9733243 257.034148,16.1181892 C257.037394,16.1117027 257.046322,16.1100811 257.053626,16.1141351 C257.059896,16.1181892 257.061741,16.1262973 257.057683,16.131973 C255.967761,18.0381892 254.526435,19.7635946 252.779151,21.129 C251.040794,22.5033243 249.040304,23.5371081 246.944862,24.2684595 C242.735312,25.7376486 238.218992,26.0433243 233.806553,25.8438649 C229.377882,25.6306216 224.997905,24.8862973 220.699083,23.8565676 C218.548455,23.3433243 216.422985,22.7271081 214.320239,22.0411622 C212.223173,21.3438649 210.130166,20.5995405 208.097214,19.6792703 C204.079191,17.8549459 200.169917,15.8895405 196.048015,14.631973 C193.999643,14.0165676 191.887158,13.556027 189.832294,13.6225135 C187.787168,13.6727838 185.821575,14.3449459 184.536879,15.8481892 C183.283834,17.3473784 182.297791,19.3752162 182.709251,21.1833243 C183.097176,22.9922432 184.881791,24.3876486 186.823849,24.7200811 C187.78798,24.8927838 188.815412,24.831973 189.639955,24.3908919 C190.050603,24.176027 190.403631,23.8711622 190.66901,23.4925135 L190.852422,23.1941351 C190.909231,23.0854865 190.959548,22.9622432 191.013922,22.8471081 C191.11699,22.611973 191.24197,22.3792703 191.305271,22.1344054 C191.637198,21.171973 191.727281,20.1235946 191.390485,19.1676486 C191.062616,18.2198108 190.352503,17.3603514 189.482513,16.8041351 L189.463847,16.791973 C189.372141,16.7327838 189.344548,16.6103514 189.404603,16.5187297 C189.458977,16.4327838 189.570972,16.4044054 189.659432,16.4498108 Z M250.649867,12.7426216 C251.671618,13.2591081 252.205623,14.5158649 252.066035,15.6834324 C252.00111,16.2696486 251.793352,16.8655946 251.3965,17.343973 C251.003706,17.823973 250.45347,18.1669459 249.863467,18.3582973 C248.702939,18.7126216 247.29651,18.5350541 246.303975,17.7582973 C245.291962,17.0277568 244.568053,15.9291081 244.277515,14.7015405 C243.986166,13.4731622 244.181751,12.128027 244.767696,11.0164054 C245.35364,9.90559459 246.220384,8.98045946 247.205615,8.29208108 C247.69255,7.93937838 248.218439,7.65964865 248.73459,7.36127027 C249.28158,7.13262162 249.8026,6.83991892 250.377995,6.66883784 C250.947708,6.48397297 251.518233,6.29505405 252.121221,6.21235135 C252.712035,6.07045946 253.327196,6.07289189 253.936676,6.04451351 C255.15807,6.08262162 256.395696,6.29505405 257.536746,6.80667568 C258.668058,7.32721622 259.693867,8.08775676 260.507047,9.04451351 C262.121236,10.9847838 262.67553,13.6693784 262.258389,16.0369459 C261.897246,18.3088378 261.174148,20.7072162 259.594045,22.5777568 C258.056143,24.4661351 255.959078,25.7407297 253.817377,26.601 C251.665937,27.4726216 249.433341,28.0215405 247.196688,28.3872162 C246.079985,28.6004595 244.9576,28.7318108 243.836027,28.8582973 C242.715266,29.0172162 241.589635,29.0569459 240.466439,29.1445135 C235.988264,29.4201892 231.444352,29.3901892 226.978349,28.8064054 C222.509912,28.2412703 218.109645,27.1912703 213.884676,25.6774865 C209.675937,24.1401892 205.566208,22.2647838 201.862259,19.7593784 C209.60452,24.2220811 218.319027,26.7688378 227.10414,27.7093784 C231.510899,28.1650541 235.935512,28.0774865 240.357691,27.6882973 C242.559447,27.4782973 244.763638,27.2601892 246.916701,26.8361351 C249.077879,26.4534324 251.201726,25.893973 253.175434,25.0612703 C255.145085,24.2326216 256.957294,23.0828919 258.246859,21.4937027 C259.568887,19.9223514 260.189728,17.8750541 260.516786,15.7758649 C260.855206,13.7585676 260.382068,11.7015405 259.126588,10.1845135 C258.496007,9.43775676 257.703927,8.83289189 256.813648,8.40802703 C255.912819,7.9937027 254.916226,7.81532432 253.91314,7.7682973 C251.910216,7.76586486 249.80747,8.40316216 248.087779,9.55856757 C247.231585,10.1285676 246.501183,10.838027 246.000452,11.6747838 C245.505402,12.5107297 245.310628,13.5007297 245.48349,14.4566757 C245.641743,15.411 246.15059,16.3304595 246.907774,16.9612703 C247.655218,17.6237027 248.677781,17.8377568 249.672751,17.6528919 C250.153193,17.5401892 250.606042,17.3155946 250.95907,16.9588378 C251.315344,16.6069459 251.552319,16.1277568 251.664314,15.6193784 C251.884246,14.6123514 251.592897,13.3928919 250.649867,12.7426216 Z M263.080822,20.8301351 C265.20548,16.7201351 269.099334,13.6147297 273.506905,12.0344595 C275.711096,11.2147297 278.057309,10.8352703 280.390538,10.7258108 L282.145937,10.6755405 C282.737563,10.712027 283.328377,10.7022973 283.922437,10.7866216 C285.107312,10.9033784 286.298679,11.1677027 287.446221,11.6193243 C288.591329,12.0701351 289.700729,12.7374324 290.589385,13.6852703 C291.466679,14.6404054 292.059116,15.8858108 292.232789,17.1709459 C292.604483,19.767973 291.43097,22.3382432 289.488912,23.9314865 C288.502058,24.7187838 287.282287,25.2409459 286.018691,25.3358108 C285.704618,25.3787838 285.388111,25.3512162 285.075661,25.3463514 C284.768892,25.3244595 284.476731,25.262027 284.17889,25.2214865 L283.735779,25.1509459 L283.291857,25.022027 C282.998073,24.9247297 282.701855,24.8712162 282.420244,24.7025676 C282.137822,24.5558108 281.849719,24.4341892 281.607875,24.195 C281.487764,24.0839189 281.353045,23.9898649 281.250789,23.8609459 L280.96999,23.4466216 C280.660787,22.862027 280.564211,22.1874324 280.682699,21.5898649 C280.904254,20.3898649 281.530777,19.3828378 282.254686,18.5063514 C281.700392,19.4906757 281.254847,20.5763514 281.211834,21.6425676 C281.168822,22.1760811 281.32951,22.6714865 281.592455,23.0566216 L281.822937,23.325 C281.904905,23.4085135 282.023392,23.4628378 282.118344,23.5341892 C282.296076,23.6922973 282.549282,23.7660811 282.780576,23.8617568 C283.000508,23.9760811 283.278872,23.9963514 283.529643,24.0555405 L283.914322,24.1309459 L284.318478,24.1544595 C284.863844,24.1925676 285.383241,24.225 285.879103,24.1309459 C286.886246,23.9898649 287.80493,23.4968919 288.562113,22.832027 C290.069176,21.4860811 290.891284,19.3471622 290.582892,17.4166216 C290.436812,16.4493243 289.975035,15.5712162 289.328224,14.8422973 C288.660312,14.1247297 287.783829,13.5782432 286.818887,13.1922973 C285.853945,12.8047297 284.803789,12.5671622 283.727664,12.4455405 C283.196093,12.3547297 282.644234,12.3531081 282.102113,12.3028378 L280.445724,12.3125676 C278.246402,12.3798649 276.030849,12.6263514 273.931349,13.3074324 C269.737219,14.5877027 265.832814,17.205 263.301566,20.9436486 L263.29345,20.9558108 C263.255307,21.0133784 263.178209,21.027973 263.1214,20.9890541 C263.068648,20.9541892 263.052417,20.8852703 263.080822,20.8301351 Z M297.681426,17.0025405 C297.681426,14.5806486 299.647019,12.6168649 302.071142,12.6168649 C304.495265,12.6168649 306.460046,14.5806486 306.460046,17.0025405 C306.460046,19.4244324 304.495265,21.3882162 302.071142,21.3882162 C299.647019,21.3882162 297.681426,19.4244324 297.681426,17.0025405 Z M310.348463,17.0025405 C310.348463,15.6874054 311.41485,14.6211892 312.732009,14.6211892 C314.048355,14.6211892 315.114742,15.6874054 315.114742,17.0025405 C315.114742,18.3176757 314.048355,19.3838919 312.732009,19.3838919 C311.41485,19.3838919 310.348463,18.3176757 310.348463,17.0025405 Z M319.002185,17.0025405 C319.002185,15.9647027 319.844582,15.1230811 320.883376,15.1230811 C321.922982,15.1230811 322.765379,15.9647027 322.765379,17.0025405 C322.765379,18.0403784 321.922982,18.882 320.883376,18.882 C319.844582,18.882 319.002185,18.0403784 319.002185,17.0025405 Z" id="Combined-Shape" fill="url(#linearGradient-1)"></path>
                <polygon id="Path-15" fill="#7F1245" points="159.457171 20.4841038 160.466233 20.4841038 159.945025 19.4430361"></polygon>
                <polygon id="Path-16" fill="#85154A" points="155.508232 19.4016456 156.838018 19.3846187 156.485402 20.3625675"></polygon>
                <polygon id="Path-17" fill="#811347" points="165.909843 19.4156882 165.047113 20.3031329 164.663576 19.3304683"></polygon>
            </g>
        </g>
    </g>
</svg>