<?xml version="1.0" encoding="UTF-8"?>
<svg width="84px" height="84px" viewBox="0 0 84 84" version="1.1" xmlns="http://www.w3.org/2000/svg" xmlns:xlink="http://www.w3.org/1999/xlink">
    <!-- Generator: Sketch 55.2 (78181) - https://sketchapp.com -->
    <title>Group 14</title>
    <desc>Created with Sketch.</desc>
    <defs>
        <path d="M-7.10542736e-15,8.34887715e-14 L-7.10542736e-15,0.814449047 L1.04774194,0.814449047 C1.94459203,0.814449047 2.64804554,0.967158244 3.17085389,1.27893952 L3.17085389,1.27893952 C3.68941176,1.58223695 4.03582543,1.94067937 4.21009488,2.35002486 L4.21009488,2.35002486 C4.37798861,2.75937034 4.46724858,3.77955261 4.46724858,5.41693455 L4.46724858,5.41693455 L4.46724858,26.3677879 C4.46724858,28.0221375 4.39711575,29.0126263 4.25685009,29.3392543 L4.25685009,29.3392543 C4.02732448,29.8440431 3.65753321,30.2449047 3.17085389,30.5312345 L3.17085389,30.5312345 C2.68204934,30.828169 1.96796964,30.9702734 1.04774194,30.9702734 L1.04774194,30.9702734 L-7.10542736e-15,30.9702734 L-7.10542736e-15,31.7868434 L14.2327135,31.7868434 L14.3304744,31.7868434 C16.3303226,31.7826015 17.803112,31.6871582 18.7424668,31.5047556 L18.7424668,31.5047556 C20.8953321,31.099652 22.7209108,30.5227506 24.219203,29.7825352 L24.219203,29.7825352 C25.7068691,29.0380779 27.0287666,28.0539519 28.1742694,26.8301574 L28.1742694,26.8301574 C29.3091461,25.602121 30.2378748,24.0432146 30.9604554,22.166164 L30.9604554,22.166164 C31.6787856,20.2806297 32.0400759,18.2190555 32.0400759,15.9878045 L32.0400759,15.9878045 C32.0400759,12.7533389 31.3089943,9.85398509 29.8468311,7.2876222 L29.8468311,7.2876222 C28.3804175,4.73186413 26.2339279,2.81451533 23.4094877,1.55042254 L23.4094877,1.55042254 C21.0951044,0.521756421 18.036888,8.34887715e-14 14.2327135,8.34887715e-14 L14.2327135,8.34887715e-14 L-7.10542736e-15,8.34887715e-14 Z M12.9299431,29.6595195 C12.6324099,29.5004474 12.4177609,29.2756255 12.2966224,28.9829329 L12.2966224,28.9829329 C12.1691082,28.6817564 12.105351,27.8779122 12.105351,26.5671582 L12.105351,26.5671582 L12.105351,1.77312345 C14.721518,1.76039768 16.5959772,1.99158244 17.7244782,2.47728252 L17.7244782,2.47728252 C19.3290323,3.1644739 20.6381784,4.46038111 21.656167,6.3671251 L21.656167,6.3671251 C22.9440607,8.80835128 23.5858824,12.0576636 23.5858824,16.1405137 L23.5858824,16.1405137 C23.5858824,21.1990058 22.6401518,24.9403811 20.7593169,27.34343 L20.7593169,27.34343 C19.3821632,29.1250373 17.3801898,30.011599 14.7618975,30.011599 L14.7618975,30.011599 C13.9628083,30.011599 13.3549905,29.8907042 12.9299431,29.6595195 L12.9299431,29.6595195 Z" id="path-1"></path>
        <path d="M26.5569639,8.34887715e-14 L26.5569639,0.814449047 C28.0127514,0.814449047 29.0073624,0.950190555 29.5429222,1.21531069 L29.5429222,1.21531069 C30.0806072,1.48891466 30.4482732,1.84523612 30.6544213,2.29487987 L30.6544213,2.29487987 C30.8711954,2.74240265 30.9753321,3.82833471 30.9753321,5.56328086 L30.9753321,5.56328086 L30.9753321,6.98220381 C32.5055028,9.76490472 33.1749526,12.8148467 33.1749526,15.9878045 L33.1749526,15.9878045 C33.1749526,18.2381442 32.8242884,20.4651533 32.0188235,22.5691466 L32.0188235,22.5691466 C31.7212903,23.3475394 31.3770019,24.1089644 30.9753321,24.8406959 L30.9753321,24.8406959 L30.9753321,26.2235626 C30.9753321,27.9585087 30.8711954,29.0444408 30.6544213,29.4834797 L30.6544213,29.4834797 C30.4482732,29.9225186 30.0806072,30.283082 29.5492979,30.5524441 L29.5492979,30.5524441 C29.0286148,30.8345319 28.0297533,30.9702734 26.5569639,30.9702734 L26.5569639,30.9702734 L26.5569639,31.7868434 L42.7427704,31.7868434 L42.7427704,30.9702734 C41.3039848,30.9702734 40.3114991,30.8345319 39.7759393,30.5736537 L39.7759393,30.5736537 C39.2297533,30.3000497 38.8535863,29.9394863 38.6453131,29.4940845 L38.6453131,29.4940845 C38.4306641,29.0444408 38.3244023,27.9585087 38.3244023,26.2235626 L38.3244023,26.2235626 L38.3244023,17.4024855 C41.9436812,17.4024855 44.513093,17.2200829 46.0262619,16.8446727 L46.0262619,16.8446727 C48.2832638,16.3080696 50.0514611,15.3090969 51.3351044,13.8392709 L51.3351044,13.8392709 C52.6251233,12.3673239 53.2626945,10.6048053 53.2626945,8.53474731 L53.2626945,8.53474731 C53.2626945,6.09776305 52.2702087,4.06588235 50.2788615,2.43910522 L50.2788615,2.43910522 C48.2917647,0.814449047 45.0103985,8.34887715e-14 40.4390133,8.34887715e-14 L40.4390133,8.34887715e-14 L26.5569639,8.34887715e-14 Z M38.3244023,15.5827009 L38.3244023,1.82190555 L39.2935104,1.82190555 C41.3443643,1.82190555 42.8957875,2.37547639 43.930778,3.46989229 L43.930778,3.46989229 C44.961518,4.56218724 45.4822011,6.29077051 45.4822011,8.65564209 L45.4822011,8.65564209 C45.4822011,11.0353604 44.961518,12.7936371 43.930778,13.9262303 L43.930778,13.9262303 C42.8957875,15.0609445 41.4144972,15.6293621 39.5017837,15.6293621 L39.5017837,15.6293621 C39.2382543,15.6293621 38.8429602,15.6145153 38.3244023,15.5827009 L38.3244023,15.5827009 Z" id="path-3"></path>
    </defs>
    <g id="Final-pages" stroke="none" stroke-width="1" fill="none" fill-rule="evenodd">
        <g id="4-DP-About-us" transform="translate(-918.000000, -2541.000000)">
            <g id="Group-14" transform="translate(920.000000, 2543.000000)">
                <circle id="Oval" stroke="#FFC27F" stroke-width="3" fill="#6B0736" cx="40" cy="40" r="40"></circle>
                <g id="Group-7" transform="translate(13.000000, 24.000000)">
                    <mask id="mask-2" fill="white">
                        <use xlink:href="#path-1"></use>
                    </mask>
                    <g id="Clip-23"></g>
                    <path d="M-7.10542736e-15,8.34887715e-14 L-7.10542736e-15,0.814449047 L1.04774194,0.814449047 C1.94459203,0.814449047 2.64804554,0.967158244 3.17085389,1.27893952 L3.17085389,1.27893952 C3.68941176,1.58223695 4.03582543,1.94067937 4.21009488,2.35002486 L4.21009488,2.35002486 C4.37798861,2.75937034 4.46724858,3.77955261 4.46724858,5.41693455 L4.46724858,5.41693455 L4.46724858,26.3677879 C4.46724858,28.0221375 4.39711575,29.0126263 4.25685009,29.3392543 L4.25685009,29.3392543 C4.02732448,29.8440431 3.65753321,30.2449047 3.17085389,30.5312345 L3.17085389,30.5312345 C2.68204934,30.828169 1.96796964,30.9702734 1.04774194,30.9702734 L1.04774194,30.9702734 L-7.10542736e-15,30.9702734 L-7.10542736e-15,31.7868434 L14.2327135,31.7868434 L14.3304744,31.7868434 C16.3303226,31.7826015 17.803112,31.6871582 18.7424668,31.5047556 L18.7424668,31.5047556 C20.8953321,31.099652 22.7209108,30.5227506 24.219203,29.7825352 L24.219203,29.7825352 C25.7068691,29.0380779 27.0287666,28.0539519 28.1742694,26.8301574 L28.1742694,26.8301574 C29.3091461,25.602121 30.2378748,24.0432146 30.9604554,22.166164 L30.9604554,22.166164 C31.6787856,20.2806297 32.0400759,18.2190555 32.0400759,15.9878045 L32.0400759,15.9878045 C32.0400759,12.7533389 31.3089943,9.85398509 29.8468311,7.2876222 L29.8468311,7.2876222 C28.3804175,4.73186413 26.2339279,2.81451533 23.4094877,1.55042254 L23.4094877,1.55042254 C21.0951044,0.521756421 18.036888,8.34887715e-14 14.2327135,8.34887715e-14 L14.2327135,8.34887715e-14 L-7.10542736e-15,8.34887715e-14 Z M12.9299431,29.6595195 C12.6324099,29.5004474 12.4177609,29.2756255 12.2966224,28.9829329 L12.2966224,28.9829329 C12.1691082,28.6817564 12.105351,27.8779122 12.105351,26.5671582 L12.105351,26.5671582 L12.105351,1.77312345 C14.721518,1.76039768 16.5959772,1.99158244 17.7244782,2.47728252 L17.7244782,2.47728252 C19.3290323,3.1644739 20.6381784,4.46038111 21.656167,6.3671251 L21.656167,6.3671251 C22.9440607,8.80835128 23.5858824,12.0576636 23.5858824,16.1405137 L23.5858824,16.1405137 C23.5858824,21.1990058 22.6401518,24.9403811 20.7593169,27.34343 L20.7593169,27.34343 C19.3821632,29.1250373 17.3801898,30.011599 14.7618975,30.011599 L14.7618975,30.011599 C13.9628083,30.011599 13.3549905,29.8907042 12.9299431,29.6595195 L12.9299431,29.6595195 Z" id="Fill-22" fill="#FFC27F"></path>
                    <mask id="mask-4" fill="white">
                        <use xlink:href="#path-3"></use>
                    </mask>
                    <g id="Clip-26"></g>
                    <path d="M26.5569639,8.34887715e-14 L26.5569639,0.814449047 C28.0127514,0.814449047 29.0073624,0.950190555 29.5429222,1.21531069 L29.5429222,1.21531069 C30.0806072,1.48891466 30.4482732,1.84523612 30.6544213,2.29487987 L30.6544213,2.29487987 C30.8711954,2.74240265 30.9753321,3.82833471 30.9753321,5.56328086 L30.9753321,5.56328086 L30.9753321,6.98220381 C32.5055028,9.76490472 33.1749526,12.8148467 33.1749526,15.9878045 L33.1749526,15.9878045 C33.1749526,18.2381442 32.8242884,20.4651533 32.0188235,22.5691466 L32.0188235,22.5691466 C31.7212903,23.3475394 31.3770019,24.1089644 30.9753321,24.8406959 L30.9753321,24.8406959 L30.9753321,26.2235626 C30.9753321,27.9585087 30.8711954,29.0444408 30.6544213,29.4834797 L30.6544213,29.4834797 C30.4482732,29.9225186 30.0806072,30.283082 29.5492979,30.5524441 L29.5492979,30.5524441 C29.0286148,30.8345319 28.0297533,30.9702734 26.5569639,30.9702734 L26.5569639,30.9702734 L26.5569639,31.7868434 L42.7427704,31.7868434 L42.7427704,30.9702734 C41.3039848,30.9702734 40.3114991,30.8345319 39.7759393,30.5736537 L39.7759393,30.5736537 C39.2297533,30.3000497 38.8535863,29.9394863 38.6453131,29.4940845 L38.6453131,29.4940845 C38.4306641,29.0444408 38.3244023,27.9585087 38.3244023,26.2235626 L38.3244023,26.2235626 L38.3244023,17.4024855 C41.9436812,17.4024855 44.513093,17.2200829 46.0262619,16.8446727 L46.0262619,16.8446727 C48.2832638,16.3080696 50.0514611,15.3090969 51.3351044,13.8392709 L51.3351044,13.8392709 C52.6251233,12.3673239 53.2626945,10.6048053 53.2626945,8.53474731 L53.2626945,8.53474731 C53.2626945,6.09776305 52.2702087,4.06588235 50.2788615,2.43910522 L50.2788615,2.43910522 C48.2917647,0.814449047 45.0103985,8.34887715e-14 40.4390133,8.34887715e-14 L40.4390133,8.34887715e-14 L26.5569639,8.34887715e-14 Z M38.3244023,15.5827009 L38.3244023,1.82190555 L39.2935104,1.82190555 C41.3443643,1.82190555 42.8957875,2.37547639 43.930778,3.46989229 L43.930778,3.46989229 C44.961518,4.56218724 45.4822011,6.29077051 45.4822011,8.65564209 L45.4822011,8.65564209 C45.4822011,11.0353604 44.961518,12.7936371 43.930778,13.9262303 L43.930778,13.9262303 C42.8957875,15.0609445 41.4144972,15.6293621 39.5017837,15.6293621 L39.5017837,15.6293621 C39.2382543,15.6293621 38.8429602,15.6145153 38.3244023,15.5827009 L38.3244023,15.5827009 Z" id="Fill-25" fill="#FFC27F"></path>
                </g>
            </g>
        </g>
    </g>
</svg>