<?xml version="1.0" encoding="UTF-8"?>
<svg width="30px" height="30px" viewBox="0 0 30 30" version="1.1" xmlns="http://www.w3.org/2000/svg" xmlns:xlink="http://www.w3.org/1999/xlink">
    <!-- Generator: Sketch 55.2 (78181) - https://sketchapp.com -->
    <title>Combined Shape</title>
    <desc>Created with Sketch.</desc>
    <g id="Final-pages" stroke="none" stroke-width="1" fill="none" fill-rule="evenodd">
        <g id="1-DP-Home-page" transform="translate(-1730.000000, -41.000000)" fill="#FFFFFF" fill-rule="nonzero">
            <path d="M1742.31724,41.0001971 L1743.55865,41.0001971 L1745.11476,44.6449624 L1740.95635,44.6449624 L1742.31724,41.0001971 Z M1737.80571,41.0001971 L1734.83489,44.6449624 L1730.5531,44.6449624 L1733.88012,41.308796 C1734.07729,41.1120476 1734.34706,41.0008657 1734.62891,41.0001971 L1737.80571,41.0001971 Z M1735.86676,44.6449624 L1738.83765,41.0001971 L1741.45792,41.0001971 L1740.09703,44.6449624 L1735.86676,44.6449624 Z M1735.41235,49.2248557 L1735.41235,45.4335454 L1739.96659,45.4335454 L1739.96659,49.1518461 C1739.51282,49.957314 1738.65217,50.4636384 1737.71115,50.4787241 C1736.77012,50.4938097 1735.89292,50.0153452 1735.41235,49.2248557 Z M1740.77357,49.1904866 L1740.77357,45.4335454 L1745.32781,45.4335454 L1745.32781,49.1872009 C1744.86143,49.9857576 1743.99281,50.4789888 1743.05167,50.4796685 C1742.11052,50.4803468 1741.24116,49.9883696 1740.77357,49.1904866 Z M1755.57156,44.6449624 L1751.27738,44.6447652 L1748.53044,41 L1751.61307,41 C1751.9015,41.0005078 1752.17701,41.1169646 1752.37484,41.3220048 L1755.57156,44.6449624 Z M1746.13486,49.155329 L1746.13486,45.4335454 L1750.6891,45.4335454 L1750.6891,49.2230814 C1750.20947,50.0140838 1749.33287,50.493529 1748.39187,50.4795298 C1747.45086,50.4655306 1746.58961,49.960232 1746.13486,49.155329 Z M1756.10111,49.174255 C1755.63044,49.9908998 1754.74115,50.4916141 1753.78185,50.4801149 C1752.82255,50.4686158 1751.9461,49.9467355 1751.49608,49.1190541 L1751.49608,45.4335454 L1756.10111,45.4335454 L1756.10111,49.174255 Z M1744.43331,41.0001971 L1747.52804,41.0001971 L1750.27491,44.6449624 L1745.98935,44.6449624 L1744.43331,41.0001971 Z M1753.44701,64.6325203 C1752.55534,64.6325203 1751.8325,63.926399 1751.8325,63.0553542 C1751.8325,62.1843093 1752.55534,61.478188 1753.44701,61.478188 C1754.33867,61.478188 1755.06151,62.1843093 1755.06151,63.0553542 C1755.06151,63.926399 1754.33867,64.6325203 1753.44701,64.6325203 Z M1756.01433,60.7057052 C1757.21169,61.8004139 1757.40786,63.5865967 1756.47548,64.9045157 L1753.44701,69.1811332 L1750.41854,64.90491 C1749.48591,63.5869115 1749.68209,61.8004661 1750.87968,60.7057052 C1752.29533,59.3883772 1754.59875,59.3883114 1756.01433,60.7057052 Z M1753.44701,65.4211034 C1754.78387,65.4196186 1755.86724,64.3613058 1755.86876,63.0553542 C1755.86876,61.7487869 1754.7845,60.6896049 1753.44701,60.6896049 C1752.10951,60.6896049 1751.02525,61.7487869 1751.02525,63.0553542 C1751.02525,64.3619214 1752.10951,65.4211034 1753.44701,65.4211034 Z M1734.6051,49.117477 C1734.15728,49.9621966 1733.26096,50.4888568 1732.28721,50.4794256 C1731.33692,50.4889677 1730.45817,49.9874719 1730,49.1741235 L1730,45.4335454 L1734.6051,45.4335454 L1734.6051,49.117477 Z M1753.44701,58.1972224 C1757.06442,58.2011699 1759.99592,61.0648476 1760,64.5986112 C1760,68.1339921 1757.06617,71 1753.4471,71 C1749.82802,71 1746.89415,68.1340359 1746.89415,64.598655 C1746.89415,61.0632742 1749.82793,58.1972224 1753.44701,58.1972224 Z M1757.1393,65.3536138 L1757.1393,65.3534166 C1758.2994,63.7165859 1758.05768,61.496711 1756.57107,60.1349025 C1754.84846,58.5319102 1752.04542,58.5319759 1750.32281,60.1349025 C1748.83615,61.4967853 1748.59449,63.7167673 1749.75471,65.3536138 L1753.11509,70.0982553 C1753.19048,70.2046811 1753.31452,70.2681925 1753.44701,70.2681925 C1753.57949,70.2681925 1753.70354,70.2046811 1753.77892,70.0982553 L1757.1393,65.3536138 Z M1737.95028,58.9365848 L1742.03544,58.9365848 L1742.03544,64.8409691 L1737.95028,64.8409691 L1737.95028,58.9365848 Z M1753.04338,57.4195481 C1749.14319,57.6331814 1746.09124,60.7826343 1746.08656,64.5986112 C1746.08656,64.6797696 1746.08851,64.7604679 1746.0912,64.8409691 L1742.84242,64.8409691 L1742.84242,58.5422932 C1742.84242,58.324532 1742.66171,58.1480017 1742.43879,58.1480017 L1737.54638,58.1480017 C1737.32347,58.1480017 1737.14276,58.324532 1737.14276,58.5422932 L1737.14276,64.8409691 L1733.37868,64.8409691 C1733.20153,64.8407518 1733.0578,64.7004974 1733.0578,64.5274416 L1733.0578,51.1831703 C1733.81751,51.0135107 1734.49494,50.5950649 1734.97758,49.9973385 C1735.6276,50.801478 1736.61953,51.2696215 1737.66841,51.2672859 C1738.71701,51.2695675 1739.70868,50.8016457 1740.35871,49.9978643 C1741.01028,50.8001763 1742.00122,51.2679252 1743.04959,51.2680276 C1744.09796,51.26813 1745.08899,50.8005748 1745.74072,49.99839 C1746.39232,50.8006067 1747.38324,51.2682434 1748.43156,51.2682434 C1749.47987,51.2682434 1750.4708,50.8006067 1751.12239,49.99839 C1751.60531,50.5963456 1752.28322,51.0147782 1753.04338,51.1840903 L1753.04338,57.4195481 Z" id="Combined-Shape"></path>
        </g>
    </g>
</svg>