<?xml version="1.0" encoding="UTF-8"?>
<svg width="139px" height="80px" viewBox="0 0 139 80" version="1.1" xmlns="http://www.w3.org/2000/svg" xmlns:xlink="http://www.w3.org/1999/xlink">
    <!-- Generator: Sketch 55.2 (78181) - https://sketchapp.com -->
    <title>Group 10</title>
    <desc>Created with Sketch.</desc>
    <defs>
        <polygon id="path-1" points="0.657096774 0.69971831 0.657096774 1.35211268 18.2767742 0.69971831 0.657096774 0.0473239437"></polygon>
        <polygon id="path-3" points="120.335194 68.9532394 120.335194 69.6056338 137.954871 68.9532394 120.335194 68.3008451"></polygon>
        <path d="M55.3379355,9.63943662 L55.3379355,10.0721127 L55.8945484,10.0721127 C56.371,10.0721127 56.7447097,10.1532394 57.0224516,10.3188732 L57.0224516,10.3188732 C57.2979355,10.48 57.4819677,10.6704225 57.5745484,10.8878873 L57.5745484,10.8878873 C57.6637419,11.1053521 57.7111613,11.6473239 57.7111613,12.5171831 L57.7111613,12.5171831 L57.7111613,23.6473239 C57.7111613,24.5261972 57.6739032,25.0523944 57.5993871,25.2259155 L57.5993871,25.2259155 C57.4774516,25.4940845 57.281,25.7070423 57.0224516,25.8591549 L57.0224516,25.8591549 C56.7627742,26.0169014 56.3834194,26.0923944 55.8945484,26.0923944 L55.8945484,26.0923944 L55.3379355,26.0923944 L55.3379355,26.5261972 L62.8990645,26.5261972 L62.951,26.5261972 C64.0134194,26.5239437 64.7958387,26.4732394 65.294871,26.376338 L65.294871,26.376338 C66.4385806,26.1611268 67.4084194,25.8546479 68.2043871,25.4614085 L68.2043871,25.4614085 C68.9947097,25.0659155 69.6969677,24.5430986 70.3055161,23.8929577 L70.3055161,23.8929577 C70.9084194,23.2405634 71.4018065,22.4123944 71.7856774,21.4152113 L71.7856774,21.4152113 C72.1672903,20.4135211 72.3592258,19.3183099 72.3592258,18.1329577 L72.3592258,18.1329577 C72.3592258,16.4146479 71.9708387,14.8743662 71.1940645,13.5109859 L71.1940645,13.5109859 C70.4150323,12.1532394 69.2747097,11.1346479 67.7742258,10.4630986 L67.7742258,10.4630986 C66.5447097,9.91661972 64.9200323,9.63943662 62.8990645,9.63943662 L62.8990645,9.63943662 L55.3379355,9.63943662 Z M62.2069677,25.3960563 C62.0489032,25.3115493 61.934871,25.1921127 61.8705161,25.0366197 L61.8705161,25.0366197 C61.8027742,24.8766197 61.7689032,24.4495775 61.7689032,23.7532394 L61.7689032,23.7532394 L61.7689032,10.5814085 C63.1587419,10.5746479 64.1545484,10.6974648 64.7540645,10.955493 L64.7540645,10.955493 C65.6064839,11.3205634 66.3019677,12.0090141 66.8427742,13.0219718 L66.8427742,13.0219718 C67.5269677,14.3188732 67.8679355,16.0450704 67.8679355,18.2140845 L67.8679355,18.2140845 C67.8679355,20.9014085 67.3655161,22.8890141 66.3663226,24.1656338 L66.3663226,24.1656338 C65.6347097,25.1121127 64.5711613,25.5830986 63.1801935,25.5830986 L63.1801935,25.5830986 C62.7556774,25.5830986 62.4327742,25.5188732 62.2069677,25.3960563 L62.2069677,25.3960563 Z" id="path-5"></path>
        <path d="M69.4463226,9.63943662 L69.4463226,10.0721127 C70.2197097,10.0721127 70.7480968,10.1442254 71.0326129,10.2850704 L71.0326129,10.2850704 C71.3182581,10.4304225 71.5135806,10.6197183 71.6230968,10.8585915 L71.6230968,10.8585915 C71.7382581,11.096338 71.7935806,11.6732394 71.7935806,12.5949296 L71.7935806,12.5949296 L71.7935806,13.3487324 C72.6064839,14.8270423 72.962129,16.4473239 72.962129,18.1329577 L72.962129,18.1329577 C72.962129,19.3284507 72.7758387,20.5115493 72.3479355,21.6292958 L72.3479355,21.6292958 C72.189871,22.0428169 72.0069677,22.4473239 71.7935806,22.8360563 L71.7935806,22.8360563 L71.7935806,23.5707042 C71.7935806,24.4923944 71.7382581,25.0692958 71.6230968,25.3025352 L71.6230968,25.3025352 C71.5135806,25.5357746 71.3182581,25.7273239 71.036,25.8704225 L71.036,25.8704225 C70.7593871,26.0202817 70.2287419,26.0923944 69.4463226,26.0923944 L69.4463226,26.0923944 L69.4463226,26.5261972 L78.0450323,26.5261972 L78.0450323,26.0923944 C77.2806774,26.0923944 76.7534194,26.0202817 76.4689032,25.8816901 L76.4689032,25.8816901 C76.1787419,25.736338 75.9789032,25.5447887 75.8682581,25.308169 L75.8682581,25.308169 C75.7542258,25.0692958 75.6977742,24.4923944 75.6977742,23.5707042 L75.6977742,23.5707042 L75.6977742,18.884507 C77.6205161,18.884507 78.9855161,18.7876056 79.7893871,18.588169 L79.7893871,18.588169 C80.9884194,18.3030986 81.9277742,17.7723944 82.6097097,16.9915493 L82.6097097,16.9915493 C83.2950323,16.2095775 83.6337419,15.2732394 83.6337419,14.1735211 L83.6337419,14.1735211 C83.6337419,12.8788732 83.1064839,11.7994366 82.0485806,10.9352113 L82.0485806,10.9352113 C80.9929355,10.0721127 79.2497097,9.63943662 76.8211613,9.63943662 L76.8211613,9.63943662 L69.4463226,9.63943662 Z M75.6977742,17.9177465 L75.6977742,10.6073239 L76.2126129,10.6073239 C77.302129,10.6073239 78.1263226,10.9014085 78.6761613,11.4828169 L78.6761613,11.4828169 C79.2237419,12.0630986 79.5003548,12.9814085 79.5003548,14.2377465 L79.5003548,14.2377465 C79.5003548,15.5019718 79.2237419,16.4360563 78.6761613,17.0377465 L78.6761613,17.0377465 C78.1263226,17.6405634 77.3393871,17.9425352 76.3232581,17.9425352 L76.3232581,17.9425352 C76.1832581,17.9425352 75.9732581,17.9346479 75.6977742,17.9177465 L75.6977742,17.9177465 Z" id="path-7"></path>
        <polygon id="path-9" points="8.28766129 75.9674366 130.684919 75.9674366 130.684919 79.5211268 8.28766129 79.5211268"></polygon>
    </defs>
    <g id="Final-pages" stroke="none" stroke-width="1" fill="none" fill-rule="evenodd">
        <g id="1-DP-Home-page" transform="translate(-891.000000, -10.000000)">
            <g id="Group-10" transform="translate(891.000000, 10.000000)">
                <path d="M37.7943548,57.971831 C37.7943548,58.3549296 37.9287097,58.6861972 38.1996774,58.955493 C38.4695161,59.228169 38.7946774,59.364507 39.1774194,59.364507 C39.5601613,59.364507 39.8920968,59.228169 40.1630645,58.955493 C40.4351613,58.6861972 40.5729032,58.3549296 40.5729032,57.971831 C40.5729032,57.5797183 40.4385484,57.2507042 40.1720968,56.9870423 C39.9067742,56.7233803 39.5714516,56.5926761 39.1774194,56.5926761 C38.7890323,56.5926761 38.4616129,56.7233803 38.1962903,56.9870423 C37.9287097,57.2507042 37.7943548,57.5797183 37.7943548,57.971831 L37.7943548,57.971831 Z M131.422742,58.4349296 L131.265806,55.336338 L132.067419,55.2901408 C132.375645,56.4101408 132.761774,57.2292958 133.224677,57.7577465 C133.686452,58.2839437 134.257742,58.5464789 134.937419,58.5464789 C135.389032,58.5464789 135.766129,58.3921127 136.067581,58.0890141 C136.367903,57.7847887 136.519194,57.4073239 136.519194,56.9577465 C136.519194,56.5374648 136.422097,56.1904225 136.225645,55.9132394 C136.028065,55.6416901 135.643065,55.3442254 135.060484,55.0208451 L133.413226,54.1149296 C132.761774,53.7656338 132.287581,53.3678873 131.985,52.9250704 C131.685806,52.4867606 131.535645,51.976338 131.535645,51.3859155 C131.535645,50.4 131.885645,49.623662 132.59129,49.0535211 C133.293548,48.48 134.262258,48.1949296 135.489516,48.1949296 C135.962581,48.1949296 136.448065,48.263662 136.947097,48.4033803 C137.443871,48.5408451 137.957581,48.7526761 138.485968,49.0298592 L138.574032,51.5661972 L137.695645,51.6360563 C137.371613,50.6816901 137.031774,50.004507 136.677258,49.6033803 C136.321613,49.2078873 135.88129,49.0073239 135.354032,49.0073239 C134.94871,49.0073239 134.620161,49.1369014 134.367258,49.4039437 C134.115484,49.6653521 133.989032,50.004507 133.989032,50.4157746 C133.989032,50.8011268 134.085,51.1278873 134.278065,51.3983099 C134.466613,51.6709859 134.836935,51.9673239 135.376613,52.2907042 L137.074677,53.303662 C137.734032,53.7025352 138.219516,54.1239437 138.520968,54.5667606 C138.82129,55.0129577 138.972581,55.5132394 138.972581,56.0777465 C138.972581,57.0332394 138.598871,57.8230986 137.85371,58.4473239 C137.108548,59.0704225 136.156774,59.3825352 135.00629,59.3825352 C134.367258,59.3825352 133.745161,59.3014085 133.15129,59.143662 C132.557419,58.9847887 131.977097,58.7492958 131.422742,58.4349296 L131.422742,58.4349296 Z M120.921613,59.1008451 L120.921613,58.5464789 C121.60129,58.4270423 122.046129,58.2614085 122.249355,58.0495775 C122.458226,57.8422535 122.562097,57.3228169 122.562097,56.4935211 L122.562097,52.4495775 C122.562097,51.7509859 122.470645,51.2664789 122.284355,50.9938028 C122.099194,50.7233803 121.752581,50.4315493 121.24,50.1160563 L121.24,49.7307042 C121.864355,49.496338 122.485323,49.2461972 123.098387,48.9757746 C123.715968,48.7030986 124.329032,48.4056338 124.951129,48.0833803 L125.366613,48.4112676 L124.992903,51.1278873 L125.152097,51.1864789 C125.837419,50.2016901 126.477581,49.4692958 127.071452,48.9870423 C127.666452,48.5070423 128.233226,48.263662 128.765,48.263662 C129.198548,48.263662 129.556452,48.395493 129.840968,48.6602817 C130.126613,48.9228169 130.268871,49.2529577 130.268871,49.6495775 C130.268871,50.0653521 130.115323,50.4698592 129.80371,50.8619718 C129.490968,51.2597183 129.026935,51.6326761 128.418387,51.9864789 C128.102258,51.4974648 127.827903,51.1616901 127.593065,50.9780282 C127.360484,50.7932394 127.110968,50.7008451 126.847903,50.7008451 C126.334194,50.7008451 125.960484,50.9205634 125.721129,51.355493 C125.485161,51.7904225 125.366613,52.4811268 125.366613,53.4185915 L125.366613,56.4935211 C125.366613,57.2292958 125.535968,57.7340845 125.875806,58.0033803 C126.215645,58.2771831 126.98,58.4585915 128.171129,58.5464789 L128.159839,59.1008451 C127.505,59.0771831 126.854677,59.0591549 126.207742,59.0478873 C125.564194,59.035493 124.93871,59.0309859 124.325645,59.0309859 C123.715968,59.0309859 123.128871,59.035493 122.562097,59.0478873 C121.995323,59.0591549 121.451129,59.0771831 120.921613,59.1008451 L120.921613,59.1008451 Z M113.104194,51.4557746 L117.058065,51.3430986 C117.011774,50.6208451 116.826613,50.0585915 116.495806,49.6574648 C116.162742,49.2529577 115.726935,49.0535211 115.181613,49.0535211 C114.692742,49.0535211 114.26371,49.2642254 113.903548,49.684507 C113.535484,50.108169 113.270161,50.6974648 113.104194,51.4557746 L113.104194,51.4557746 Z M119.78129,55.9898592 L120.301774,56.4180282 C119.543065,57.4569014 118.782097,58.1960563 118.025645,58.6388732 C117.265806,59.0805634 116.403226,59.3047887 115.43,59.3047887 C113.987097,59.3047887 112.782419,58.8078873 111.827258,57.8107042 C110.870968,56.8146479 110.391129,55.5549296 110.391129,54.0394366 C110.391129,52.3909859 110.916129,51.0005634 111.969516,49.8692958 C113.018387,48.7380282 114.311129,48.1723944 115.85,48.1723944 C117.038871,48.1723944 117.995161,48.5329577 118.721129,49.2619718 C119.441452,49.9842254 119.846774,50.9825352 119.928065,52.244507 L113.062419,52.244507 C113.045484,52.3143662 113.035323,52.3797183 113.029677,52.4495775 C113.02629,52.5138028 113.02629,52.6174648 113.02629,52.7526761 C113.02629,54.0923944 113.407903,55.1752113 114.168871,56.0056338 C114.927581,56.8371831 115.915484,57.2529577 117.126935,57.2529577 C117.659839,57.2529577 118.141935,57.1526761 118.573226,56.9487324 C119.002258,56.7447887 119.403065,56.4259155 119.78129,55.9898592 L119.78129,55.9898592 Z M103.271452,59.1008451 L103.259032,58.5464789 C104.027903,58.4428169 104.524677,58.2805634 104.752742,58.0698592 C104.979677,57.8546479 105.091452,57.3307042 105.091452,56.4935211 L105.091452,46.5577465 C105.091452,45.8771831 105,45.3960563 104.810323,45.1166197 C104.621774,44.8383099 104.266129,44.5419718 103.745645,44.2264789 L103.745645,43.8287324 C104.355323,43.6101408 104.971774,43.3678873 105.589355,43.1030986 C106.205806,42.8349296 106.835806,42.5397183 107.474839,42.216338 L107.961452,42.5656338 C107.935484,43.3476056 107.911774,44.0878873 107.895968,44.7876056 C107.88129,45.4884507 107.873387,46.131831 107.873387,46.7166197 L107.873387,56.4935211 C107.873387,57.3442254 107.988548,57.8771831 108.216613,58.0890141 C108.448065,58.3042254 108.944839,58.4585915 109.704677,58.5464789 L109.692258,59.1008451 C109.172903,59.0771831 108.644516,59.0591549 108.112742,59.0478873 C107.576452,59.035493 107.040161,59.0309859 106.503871,59.0309859 C105.970968,59.0309859 105.43129,59.035493 104.887097,59.0478873 C104.344032,59.0591549 103.807742,59.0771831 103.271452,59.1008451 L103.271452,59.1008451 Z M96.423871,59.1008451 L96.4114516,58.5464789 C97.1803226,58.4428169 97.6782258,58.2805634 97.9062903,58.0698592 C98.1320968,57.8546479 98.245,57.3307042 98.245,56.4935211 L98.245,46.5577465 C98.245,45.8771831 98.1512903,45.3960563 97.9627419,45.1166197 C97.7741935,44.8383099 97.4196774,44.5419718 96.8980645,44.2264789 L96.8980645,43.8287324 C97.5077419,43.6101408 98.1253226,43.3678873 98.7429032,43.1030986 C99.3604839,42.8349296 99.9882258,42.5397183 100.629516,42.216338 L101.113871,42.5656338 C101.087903,43.3476056 101.065323,44.0878873 101.049516,44.7876056 C101.03371,45.4884507 101.025806,46.131831 101.025806,46.7166197 L101.025806,56.4935211 C101.025806,57.3442254 101.142097,57.8771831 101.369032,58.0890141 C101.600484,58.3042254 102.098387,58.4585915 102.858226,58.5464789 L102.846935,59.1008451 C102.326452,59.0771831 101.798065,59.0591549 101.265161,59.0478873 C100.728871,59.035493 100.192581,59.0309859 99.6562903,59.0309859 C99.1245161,59.0309859 98.5848387,59.035493 98.0406452,59.0478873 C97.4964516,59.0591549 96.9612903,59.0771831 96.423871,59.1008451 L96.423871,59.1008451 Z M88.6967742,51.4557746 L92.6506452,51.3430986 C92.6054839,50.6208451 92.4203226,50.0585915 92.0872581,49.6574648 C91.7564516,49.2529577 91.3206452,49.0535211 90.7764516,49.0535211 C90.2875806,49.0535211 89.8596774,49.2642254 89.495,49.684507 C89.1291935,50.108169 88.863871,50.6974648 88.6967742,51.4557746 L88.6967742,51.4557746 Z M95.375,55.9898592 L95.8954839,56.4180282 C95.1356452,57.4569014 94.3758065,58.1960563 93.6204839,58.6388732 C92.8595161,59.0805634 91.9958065,59.3047887 91.0237097,59.3047887 C89.5819355,59.3047887 88.3772581,58.8078873 87.4209677,57.8107042 C86.4635484,56.8146479 85.9859677,55.5549296 85.9859677,54.0394366 C85.9859677,52.3909859 86.5098387,51.0005634 87.5643548,49.8692958 C88.6120968,48.7380282 89.9048387,48.1723944 91.4448387,48.1723944 C92.6314516,48.1723944 93.588871,48.5329577 94.3137097,49.2619718 C95.0351613,49.9842254 95.4393548,50.9825352 95.5206452,52.244507 L88.653871,52.244507 C88.6403226,52.3143662 88.6279032,52.3797183 88.6245161,52.4495775 C88.62,52.5138028 88.62,52.6174648 88.62,52.7526761 C88.62,54.0923944 89.0016129,55.1752113 89.7614516,56.0056338 C90.5224194,56.8371831 91.5103226,57.2529577 92.7206452,57.2529577 C93.2535484,57.2529577 93.7345161,57.1526761 94.1680645,56.9487324 C94.5948387,56.7447887 94.9967742,56.4259155 95.375,55.9898592 L95.375,55.9898592 Z M73.3995161,59.3284507 L72.3574194,59.1695775 L69.3293548,51.8907042 C69.2830645,51.7870423 69.2209677,51.628169 69.1362903,51.4174648 C68.5345161,49.9504225 67.8480645,49.1538028 67.0803226,49.0264789 L67.0803226,48.4529577 C67.5703226,48.4743662 68.0569355,48.4912676 68.5379032,48.503662 C69.021129,48.5138028 69.5066129,48.5205634 69.9966129,48.5205634 C70.5012903,48.5205634 71.0070968,48.5138028 71.5095161,48.503662 C72.0141935,48.4912676 72.518871,48.4743662 73.0246774,48.4529577 L73.0246774,49.0264789 C72.5583871,49.1222535 72.2185484,49.2416901 72.0062903,49.3802817 C71.7985484,49.52 71.6912903,49.6957746 71.6912903,49.9076056 C71.6912903,50.0349296 71.716129,50.2039437 71.7714516,50.4202817 C71.8256452,50.635493 71.9012903,50.8698592 72.0062903,51.124507 L73.9730645,56.0991549 L75.8054839,51.4050704 L75.3854839,50.2546479 C75.2962903,49.9842254 75.146129,49.7656338 74.9429032,49.595493 C74.7329032,49.4264789 74.3591935,49.2383099 73.816129,49.0264789 L73.816129,48.4529577 C74.3219355,48.4743662 74.8175806,48.4912676 75.3132258,48.503662 C75.8054839,48.5138028 76.3033871,48.5205634 76.8012903,48.5205634 C77.3025806,48.5205634 77.803871,48.5138028 78.2983871,48.503662 C78.7917742,48.4912676 79.2783871,48.4743662 79.7604839,48.4529577 L79.7604839,49.0264789 C79.2783871,49.1222535 78.9227419,49.2383099 78.6901613,49.3690141 C78.4632258,49.5042254 78.3480645,49.6574648 78.3480645,49.8377465 C78.3480645,49.9729577 78.401129,50.2039437 78.506129,50.5273239 C78.61,50.851831 78.7680645,51.275493 78.9803226,51.8005634 L80.6659677,56.0777465 L81.8514516,53.0997183 C82.1009677,52.4676056 82.2940323,51.8715493 82.4396774,51.3160563 C82.5830645,50.7583099 82.6530645,50.3278873 82.6530645,50.0191549 C82.6530645,49.7701408 82.5559677,49.5774648 82.3629032,49.4309859 C82.1743548,49.2878873 81.796129,49.1538028 81.2417742,49.0264789 L81.2530645,48.4529577 C81.6651613,48.4743662 82.073871,48.4912676 82.4712903,48.503662 C82.8720968,48.5138028 83.2627419,48.5205634 83.648871,48.5205634 C84.0406452,48.5205634 84.4233871,48.5138028 84.7925806,48.503662 C85.1674194,48.4912676 85.5343548,48.4743662 85.8967742,48.4529577 L85.8967742,49.0264789 C84.9946774,49.1459155 84.0451613,50.3459155 83.0504839,52.6253521 C82.8540323,53.0625352 82.6993548,53.4028169 82.5875806,53.6540845 L80.0224194,59.3284507 L79.0695161,59.1695775 L76.333871,52.3752113 L73.3995161,59.3284507 Z M59.5666129,51.4557746 L63.5204839,51.3430986 C63.4741935,50.6208451 63.2890323,50.0585915 62.9570968,49.6574648 C62.6251613,49.2529577 62.1893548,49.0535211 61.6451613,49.0535211 C61.1551613,49.0535211 60.7272581,49.2642254 60.3648387,49.684507 C59.9990323,50.108169 59.7314516,50.6974648 59.5666129,51.4557746 L59.5666129,51.4557746 Z M66.2425806,55.9898592 L66.7641935,56.4180282 C66.0032258,57.4569014 65.2445161,58.1960563 64.4880645,58.6388732 C63.7282258,59.0805634 62.8645161,59.3047887 61.8912903,59.3047887 C60.4495161,59.3047887 59.2459677,58.8078873 58.2896774,57.8107042 C57.3322581,56.8146479 56.8535484,55.5549296 56.8535484,54.0394366 C56.8535484,52.3909859 57.3785484,51.0005634 58.4319355,49.8692958 C59.4808065,48.7380282 60.7735484,48.1723944 62.3124194,48.1723944 C63.5012903,48.1723944 64.4575806,48.5329577 65.1824194,49.2619718 C65.903871,49.9842254 66.3080645,50.9825352 66.3904839,52.244507 L59.5237097,52.244507 C59.5079032,52.3143662 59.4966129,52.3797183 59.4920968,52.4495775 C59.4887097,52.5138028 59.4887097,52.6174648 59.4887097,52.7526761 C59.4887097,54.0923944 59.8703226,55.1752113 60.6312903,56.0056338 C61.391129,56.8371831 62.3779032,57.2529577 63.5893548,57.2529577 C64.121129,57.2529577 64.6043548,57.1526761 65.0356452,56.9487324 C65.4646774,56.7447887 65.8654839,56.4259155 66.2425806,55.9898592 L66.2425806,55.9898592 Z M46.6245161,63.6473239 L46.3309677,63.0050704 C47.2556452,62.5160563 47.9929032,61.9988732 48.5416129,61.4535211 C49.0891935,60.9059155 49.4629032,60.3098592 49.6683871,59.6552113 C49.8106452,59.1819718 49.911129,58.5960563 49.9766129,57.9008451 C50.0409677,57.2022535 50.0725806,56.1791549 50.0725806,54.828169 L50.0725806,52.9532394 L50.0725806,48.0371831 C50.0725806,47.124507 50.0375806,46.3932394 49.9641935,45.835493 C49.8953226,45.2788732 49.7835484,44.8890141 49.6322581,44.663662 C49.4369355,44.3684507 49.1117742,44.1374648 48.6646774,43.9684507 C48.2164516,43.7983099 47.6079032,43.6867606 46.8401613,43.6259155 L46.8401613,43.0061972 C47.6541935,43.0276056 48.4603226,43.0433803 49.2585484,43.0557746 C50.0567742,43.0670423 50.8482258,43.0749296 51.6306452,43.0749296 C52.4141935,43.0749296 53.1932258,43.0659155 53.9643548,43.0557746 C54.7366129,43.0433803 55.4998387,43.0276056 56.2517742,43.0061972 L56.2517742,43.6259155 C55.0414516,43.7442254 54.2341935,44.0450704 53.8401613,44.5216901 C53.445,44.9983099 53.2474194,46.1701408 53.2474194,48.0371831 L53.2474194,52.9104225 C53.2474194,53.2360563 53.2553226,53.7814085 53.271129,54.5307042 C53.2858065,55.2856338 53.2937097,55.8749296 53.2937097,56.3030986 C53.2937097,57.5459155 53.1514516,58.5509859 52.8624194,59.3171831 C52.5756452,60.0833803 52.1172581,60.7188732 51.483871,61.2214085 C50.8820968,61.6957746 50.1764516,62.1352113 49.3669355,62.5430986 C48.5574194,62.9476056 47.6429032,63.3160563 46.6245161,63.6473239 L46.6245161,63.6473239 Z M26.0885484,59.1008451 L26.0885484,58.4811268 C27.2729032,58.3538028 28.0564516,58.0461972 28.4470968,57.5616901 C28.8343548,57.0760563 29.0285484,55.9132394 29.0285484,54.0687324 L29.0285484,48.056338 C29.0285484,47.1549296 28.9935484,46.428169 28.9201613,45.8738028 C28.8512903,45.3228169 28.7383871,44.9340845 28.5882258,44.7076056 C28.4075806,44.4371831 28.1219355,44.216338 27.7290323,44.0495775 C27.333871,43.8794366 26.7908065,43.736338 26.0885484,43.6259155 L26.0885484,43.0276056 C27.1227419,42.96 28.1140323,42.9126761 29.0714516,42.8811268 C30.0277419,42.851831 30.9422581,42.8349296 31.8059677,42.8349296 C34.6714516,42.8349296 36.786129,43.2090141 38.151129,43.9526761 C39.5206452,44.6952113 40.2037097,45.8490141 40.2037097,47.4174648 C40.2037097,48.776338 39.6482258,49.8884507 38.5406452,50.7549296 C37.4341935,51.6169014 35.8287097,52.1983099 33.7264516,52.4912676 L33.5345161,51.8478873 C34.613871,51.4861972 35.4087097,51.0050704 35.9212903,50.3966197 C36.435,49.7926761 36.6890323,49.0343662 36.6890323,48.1261972 C36.6890323,46.8078873 36.2995161,45.7701408 35.5204839,45.0107042 C34.7414516,44.2523944 33.6270968,43.8242254 32.1808065,43.736338 L32.1808065,53.9695775 C32.1808065,55.1290141 32.2101613,55.9222535 32.2767742,56.348169 C32.3377419,56.7797183 32.4495161,57.0952113 32.6075806,57.2946479 C32.8277419,57.576338 33.2059677,57.8152113 33.7501613,58.0112676 C34.2932258,58.211831 34.9762903,58.3707042 35.806129,58.4811268 L35.806129,59.1008451 C34.9525806,59.0771831 34.1080645,59.0591549 33.2680645,59.0478873 C32.4314516,59.035493 31.6027419,59.0309859 30.7909677,59.0309859 C29.9780645,59.0309859 29.1787097,59.035493 28.3996774,59.0478873 C27.6206452,59.0591549 26.8495161,59.0771831 26.0885484,59.1008451 L26.0885484,59.1008451 Z M19.6090323,57.971831 C19.6090323,57.5797183 19.7433871,57.2507042 20.0109677,56.9870423 C20.2751613,56.7233803 20.6037097,56.5926761 20.9898387,56.5926761 C21.386129,56.5926761 21.7214516,56.7233803 21.9856452,56.9870423 C22.2532258,57.2507042 22.3875806,57.5797183 22.3875806,57.971831 C22.3875806,58.3549296 22.2498387,58.6861972 21.9766129,58.955493 C21.7056452,59.228169 21.3748387,59.364507 20.9898387,59.364507 C20.6093548,59.364507 20.2841935,59.228169 20.0132258,58.955493 C19.7433871,58.6861972 19.6090323,58.3549296 19.6090323,57.971831 L19.6090323,57.971831 Z M6.09,43.8107042 L6.09,54.4540845 C6.09,55.228169 6.11935484,55.7938028 6.17693548,56.1476056 C6.23451613,56.4980282 6.335,56.7988732 6.47725806,57.0490141 C6.68612903,57.411831 6.99774194,57.684507 7.41435484,57.8726761 C7.82758065,58.0619718 8.32435484,58.1532394 8.90806452,58.1532394 C10.4966129,58.1532394 11.8006452,57.5538028 12.8224194,56.3560563 C13.8453226,55.1549296 14.3545161,53.6112676 14.3545161,51.7126761 C14.3545161,49.2878873 13.6601613,47.4095775 12.2680645,46.0811268 C10.8793548,44.7560563 8.81887097,43.9988732 6.09,43.8107042 L6.09,43.8107042 Z M7.10542736e-14,59.1008451 L7.10542736e-14,58.4811268 C1.18548387,58.3538028 1.96903226,58.0461972 2.35741935,57.5616901 C2.74693548,57.0760563 2.94,55.9132394 2.94,54.0732394 L2.94,48.0597183 C2.94,47.1583099 2.905,46.4315493 2.83274194,45.8771831 C2.76274194,45.3261972 2.65096774,44.9385915 2.49967742,44.7098592 C2.31903226,44.4405634 2.03451613,44.2219718 1.64048387,44.051831 C1.24645161,43.8816901 0.702258065,43.7408451 7.10542736e-14,43.6292958 L7.10542736e-14,43.0321127 C1.06806452,42.955493 2.05709677,42.9014085 2.95580645,42.8664789 C3.85451613,42.8315493 4.67645161,42.8169014 5.41258065,42.8169014 C7.3183871,42.8169014 8.86516129,42.9047887 10.0529032,43.0828169 C11.2406452,43.2597183 12.2974194,43.548169 13.2356452,43.9560563 C14.7869355,44.6107042 15.9927419,45.5729577 16.8575806,46.8473239 C17.7179032,48.1216901 18.1503226,49.5853521 18.1503226,51.228169 C18.1503226,53.5909859 17.2662903,55.4952113 15.4993548,56.9374648 C13.7335484,58.3808451 11.3795161,59.1008451 8.44064516,59.1008451 L7.10542736e-14,59.1008451 Z" id="Fill-1" fill="#FFC27F"></path>
                <polygon id="Fill-4" fill="#FFC27F" points="18.6377258 69.6058592 18.6377258 68.9534648 18.6377258 68.3010704 1.01804839 68.9534648"></polygon>
                <g id="Group-9" transform="translate(119.678097, 68.253521)">
                    <mask id="mask-2" fill="white">
                        <use xlink:href="#path-1"></use>
                    </mask>
                    <g id="Clip-8"></g>
                    <polygon id="Fill-7" mask="url(#mask-2)" points="0.657096774 0.69971831 0.657096774 1.35211268 18.2767742 0.69971831 0.657096774 0.0473239437"></polygon>
                </g>
                <mask id="mask-4" fill="white">
                    <use xlink:href="#path-3"></use>
                </mask>
                <g id="Clip-14"></g>
                <polygon id="Fill-13" fill="#FFC27F" points="120.335194 68.9532394 120.335194 69.6056338 137.954871 68.9532394 120.335194 68.3008451"></polygon>
                <path d="M114.248242,68.9412958 C114.248242,70.2877746 114.906468,71.2545352 115.765661,71.2545352 C116.706145,71.2545352 117.283081,70.1469296 117.283081,68.9412958 C117.283081,67.3322817 116.47921,66.5548169 115.773565,66.5548169 C115.095016,66.5548169 114.248242,67.2522817 114.248242,68.9412958 L114.248242,68.9412958 Z M116.222919,69.6781972 C116.222919,70.1198873 116.161952,70.5491831 116.12921,70.6900282 C116.095339,70.8241127 116.021952,71.0663662 115.773565,71.0663662 C115.423565,71.0663662 115.309532,70.6370704 115.309532,69.6781972 L115.309532,68.1435493 C115.309532,67.5869296 115.309532,66.7429859 115.760016,66.7429859 C116.08179,66.7429859 116.222919,67.1305915 116.222919,68.1435493 L116.222919,69.6781972 Z M112.620177,69.4573521 L111.215661,69.4573521 L112.606629,67.4866479 L112.620177,67.4866479 L112.620177,69.4573521 Z M113.579855,69.4573521 L113.579855,66.5548169 L113.043565,66.5548169 C112.424855,67.3593239 111.538565,68.4917183 110.941306,69.4427042 L110.941306,70.2010141 L112.606629,70.2010141 L112.606629,71.1666479 L113.579855,71.1666479 L113.579855,70.2010141 L114.003242,70.2010141 L114.003242,69.4573521 L113.579855,69.4573521 Z M108.734048,67.688338 C108.734048,67.1587606 108.734048,66.7350986 109.143887,66.7350986 C109.561629,66.7350986 109.662113,67.152 109.662113,68.4714366 C109.662113,68.6269296 109.621468,68.968338 109.601145,69.0742535 C109.594371,69.1294648 109.413726,69.1621408 109.306468,69.1621408 C108.842435,69.1621408 108.734048,68.6528451 108.734048,67.688338 L108.734048,67.688338 Z M107.747274,71.2545352 C109.762597,71.0517183 110.716629,69.7649577 110.716629,68.5446761 C110.716629,66.9379155 109.78179,66.5548169 109.178887,66.5548169 C107.968565,66.5548169 107.714532,67.6950986 107.714532,68.0567887 C107.714532,69.208338 108.466468,69.4641127 108.929371,69.4641127 C109.050177,69.4641127 109.150661,69.4573521 109.252274,69.4370704 C109.352758,69.4235493 109.446468,69.3897465 109.546952,69.3367887 C109.204855,70.6032676 108.419048,70.9446761 107.747274,71.0787606 L107.747274,71.2545352 Z M107.233565,71.0055211 C106.568565,71.0055211 106.508726,70.8241127 106.508726,70.3745352 L106.508726,66.5548169 L106.394694,66.5548169 L104.701145,67.2849577 L104.701145,67.4596056 C104.930339,67.3717183 105.158403,67.2917183 105.253242,67.2917183 C105.515177,67.2917183 105.515177,67.5869296 105.515177,67.7548169 L105.515177,70.3350986 C105.515177,70.7497465 105.493726,71.0122817 104.714694,71.0055211 L104.714694,71.1666479 L107.233565,71.1666479 L107.233565,71.0055211 Z M98.3819516,66.803831 C98.6913065,66.8218592 98.9735645,66.836507 98.9735645,67.2793239 L98.9735645,70.5221408 C98.9735645,70.9379155 98.7658226,70.9581972 98.3819516,70.9987606 L98.3819516,71.1666479 L102.310984,71.1666479 L102.579694,69.7717183 L102.391145,69.7717183 C101.968887,70.7835493 101.283565,70.9581972 100.625339,70.9581972 C100.189532,70.9581972 100.061952,70.8781972 100.061952,70.5829859 L100.061952,68.9615775 C100.725823,68.9615775 101.067919,69.1621408 101.14921,69.9993239 L101.32421,69.9993239 L101.32421,67.735662 L101.14921,67.735662 C101.048726,68.5649577 100.706629,68.7407324 100.061952,68.7328451 L100.061952,67.1790423 C100.061952,66.8905915 100.181629,66.8635493 100.551952,66.8635493 C101.458565,66.8635493 101.935016,67.0314366 102.089694,67.9824225 L102.257919,67.9824225 L102.257919,66.6359437 L98.3819516,66.6359437 L98.3819516,66.803831 Z M97.9224355,70.1469296 C97.3646935,70.7700282 96.8611452,70.9717183 96.3372742,70.9717183 C96.1284032,70.9717183 95.5977581,70.8714366 95.3155,70.3880563 C95.0682419,69.9587606 95.0287258,69.316507 95.0287258,68.9153803 C95.0287258,67.7829859 95.2906613,66.756507 96.2695323,66.756507 C97.0361452,66.756507 97.6006613,67.5396056 97.8355,68.1232676 L98.0025968,68.1232676 L98.0025968,66.5548169 L97.8208226,66.5548169 C97.7553387,66.7227042 97.694371,66.8635493 97.5125968,66.8635493 C97.3375968,66.8635493 96.8205,66.5345352 96.2164677,66.5345352 C94.8063065,66.5345352 93.8398548,67.5812958 93.8398548,68.9412958 C93.8398548,70.1931268 94.6855,71.2939718 96.2503387,71.2939718 C97.1084032,71.2939718 97.6334032,70.8714366 98.1245323,70.3159437 L97.9224355,70.1469296 Z M88.8529194,71.1666479 L90.3771129,71.1666479 L90.3771129,70.9987606 C89.8803387,70.9446761 89.7392097,70.8173521 89.7392097,70.3350986 L89.7392097,67.6534085 L89.7527581,67.6534085 L92.7401774,71.288338 L92.9298548,71.288338 L92.9298548,67.3390423 C92.9298548,67.0179155 92.969371,66.8635493 93.4525968,66.803831 L93.4525968,66.6359437 L92.0085645,66.6359437 L92.0085645,66.803831 C92.5538871,66.8443944 92.6329194,67.0641127 92.6329194,67.4663662 L92.6329194,69.4979155 L92.6205,69.4979155 L90.2901774,66.6359437 L88.8721129,66.6359437 L88.8721129,66.803831 C88.9601774,66.803831 89.0674355,66.8218592 89.4434032,67.2849577 L89.4434032,70.4624225 C89.4434032,70.9041127 89.2559839,70.9514366 88.8529194,70.9987606 L88.8529194,71.1666479 Z M88.701629,70.9987606 C88.3335645,70.9717183 88.0637258,70.9514366 88.0637258,70.5221408 L88.0637258,67.2793239 C88.0637258,66.8218592 88.386629,66.8162254 88.701629,66.803831 L88.701629,66.6359437 L86.3509839,66.6359437 L86.3509839,66.803831 C86.6603387,66.8218592 86.9753387,66.836507 86.9753387,67.2793239 L86.9753387,70.5221408 C86.9753387,70.9379155 86.7145323,70.9649577 86.3509839,70.9987606 L86.3509839,71.1666479 L88.701629,71.1666479 L88.701629,70.9987606 Z M85.8169516,67.9824225 L85.8169516,66.5277746 L85.6171129,66.5277746 C85.5821129,66.6550986 85.5482419,66.756507 85.3946935,66.756507 C85.199371,66.756507 84.8832419,66.5345352 84.3469516,66.5345352 C83.0711452,66.5345352 82.8622742,67.4460845 82.8622742,67.8550986 C82.8622742,68.163831 82.8622742,68.7407324 84.0105,69.2894648 L84.4609839,69.5046761 C84.8967903,69.712 85.2140484,69.872 85.2140484,70.3227042 C85.2140484,70.4094648 85.1790484,71.072 84.3729194,71.072 C83.5205,71.072 83.1309839,70.3159437 82.996629,69.6376338 L82.8013065,69.6376338 L82.8013065,71.2939718 L82.996629,71.2939718 C83.0237258,71.1869296 83.0575968,71.0663662 83.1975968,71.0663662 C83.4075968,71.0663662 83.7090484,71.2939718 84.3469516,71.2939718 C85.5821129,71.2939718 86.0122742,70.4827042 86.0122742,69.8922817 C86.0122742,69.1621408 85.5008226,68.7734085 85.2727581,68.6596056 L84.2871129,68.1705915 C83.7225968,67.8889014 83.5938871,67.7412958 83.5938871,67.3796056 C83.5938871,66.9446761 83.9642097,66.7429859 84.3130806,66.7429859 C85.1056613,66.7429859 85.5087258,67.5125634 85.6284032,67.9824225 L85.8169516,67.9824225 Z M80.021629,70.9987606 C79.5248548,70.9649577 79.3645323,70.9514366 79.3645323,70.3824225 L79.3645323,66.8500282 C79.8274355,66.8770704 80.5195323,66.9086197 80.6527581,67.9824225 L80.8480806,67.9824225 L80.8345323,66.6359437 L76.8050161,66.6359437 L76.7835645,67.9824225 L76.9788871,67.9824225 C77.1132419,66.9086197 77.8064677,66.8770704 78.2761452,66.8500282 L78.2761452,70.3824225 C78.2761452,70.9446761 78.1146935,70.9581972 77.6246935,70.9987606 L77.6246935,71.1666479 L80.021629,71.1666479 L80.021629,70.9987606 Z M76.1772742,67.9824225 L76.1772742,66.5277746 L75.9763065,66.5277746 C75.9413065,66.6550986 75.9085645,66.756507 75.7538871,66.756507 C75.5585645,66.756507 75.2435645,66.5345352 74.7072742,66.5345352 C73.4303387,66.5345352 73.2225968,67.4460845 73.2225968,67.8550986 C73.2225968,68.163831 73.2225968,68.7407324 74.3708226,69.2894648 L74.8201774,69.5046761 C75.2571129,69.712 75.5721129,69.872 75.5721129,70.3227042 C75.5721129,70.4094648 75.5382419,71.072 74.7332419,71.072 C73.8808226,71.072 73.4901774,70.3159437 73.3558226,69.6376338 L73.1605,69.6376338 L73.1605,71.2939718 L73.3558226,71.2939718 C73.3829194,71.1869296 73.4167903,71.0663662 73.5579194,71.0663662 C73.7667903,71.0663662 74.0682419,71.2939718 74.7072742,71.2939718 C75.9413065,71.2939718 76.3714677,70.4827042 76.3714677,69.8922817 C76.3714677,69.1621408 75.8611452,68.7734085 75.6330806,68.6596056 L74.6463065,68.1705915 C74.0829194,67.8889014 73.9542097,67.7412958 73.9542097,67.3796056 C73.9542097,66.9446761 74.3245323,66.7429859 74.6734032,66.7429859 C75.4648548,66.7429859 75.8679194,67.5125634 75.9887258,67.9824225 L76.1772742,67.9824225 Z M72.8703387,66.6359437 L72.8703387,66.803831 C72.5000161,66.855662 72.3453387,66.9311549 72.3453387,67.3717183 L72.3453387,69.5103099 C72.3453387,69.9058028 72.251629,70.5029859 71.9705,70.803831 C71.6340484,71.1666479 71.0492097,71.2939718 70.6472742,71.2939718 C70.3514677,71.2939718 69.7203387,71.2545352 69.2834032,70.8714366 C68.9932419,70.615662 68.8205,70.3824225 68.8205,69.6579155 L68.8205,67.4190423 C68.8205,66.855662 68.6455,66.8443944 68.2684032,66.803831 L68.2684032,66.6359437 L70.5388871,66.6359437 L70.5388871,66.803831 C70.0963065,66.8218592 69.8874355,66.8297465 69.8874355,67.4190423 L69.8874355,69.6579155 C69.8874355,70.0398873 69.8874355,70.9649577 70.8550161,70.9649577 C72.0359839,70.9649577 72.0506613,69.9396056 72.0506613,69.5103099 L72.0506613,67.4663662 C72.0506613,67.0573521 71.9705,66.8297465 71.3913065,66.803831 L71.3913065,66.6359437 L72.8703387,66.6359437 Z M68.4005,70.9987606 C68.3203387,70.9987606 68.2187258,70.9908732 68.1238871,70.8714366 L66.7746935,68.9615775 C67.1371129,68.8466479 67.8303387,68.6381972 67.8303387,67.8145352 C67.8303387,66.6877746 66.4055,66.6359437 65.9358226,66.6359437 L63.7725968,66.6359437 L63.7725968,66.803831 C64.1553387,66.8297465 64.3642097,66.8443944 64.3642097,67.4190423 L64.3642097,70.3824225 C64.3642097,70.9243944 64.2298548,70.9446761 63.7725968,70.9987606 L63.7725968,71.1666479 L66.0430806,71.1666479 L66.0430806,70.9987606 C65.599371,70.9379155 65.4525968,70.9187606 65.4525968,70.3824225 L65.4525968,69.0686197 L65.6332419,69.0686197 L67.0230806,71.1666479 L68.4005,71.1666479 L68.4005,70.9987606 Z M65.4525968,67.1441127 C65.4864677,66.9379155 65.4988871,66.8635493 65.8680806,66.8635493 C66.4055,66.8635493 66.6809839,67.152 66.6809839,67.8291831 C66.6809839,68.6990423 66.3321129,68.8466479 65.4525968,68.8534085 L65.4525968,67.1441127 Z M62.6469516,70.9987606 C62.1513065,70.9649577 61.9898548,70.9514366 61.9898548,70.3824225 L61.9898548,66.8500282 C62.4538871,66.8770704 63.1448548,66.9086197 63.2792097,67.9824225 L63.4734032,67.9824225 L63.4609839,66.6359437 L59.4314677,66.6359437 L59.4122742,67.9824225 L59.6064677,67.9824225 C59.7408226,66.9086197 60.4317903,66.8770704 60.9014677,66.8500282 L60.9014677,70.3824225 C60.9014677,70.9446761 60.7411452,70.9581972 60.2511452,70.9987606 L60.2511452,71.1666479 L62.6469516,71.1666479 L62.6469516,70.9987606 Z M53.8980806,66.803831 C54.2130806,66.8218592 54.4885645,66.836507 54.4885645,67.2793239 L54.4885645,70.5221408 C54.4885645,70.9379155 54.2808226,70.9581972 53.8980806,70.9987606 L53.8980806,71.1666479 L56.3142097,71.1666479 L56.3142097,70.9987606 C55.8445323,70.9784789 55.5758226,70.9649577 55.5758226,70.5221408 L55.5758226,68.9615775 C56.4225968,68.9615775 56.5298548,69.4505915 56.604371,69.9993239 L56.7725968,69.9993239 L56.7725968,67.735662 L56.604371,67.735662 C56.5095323,68.2697465 56.4090484,68.7463662 55.5758226,68.7328451 L55.5758226,67.1790423 C55.5758226,66.8905915 55.6977581,66.8635493 56.0601774,66.8635493 C57.2151774,66.8635493 57.3969516,67.2849577 57.5437258,67.9824225 L57.7051774,67.9824225 L57.7051774,66.6359437 L53.8980806,66.6359437 L53.8980806,66.803831 Z M51.2617903,66.5345352 C49.9656613,66.5345352 48.8840484,67.4539718 48.8840484,68.9153803 C48.8840484,70.3227042 49.884371,71.2939718 51.2617903,71.2939718 C52.6380806,71.2939718 53.6395323,70.3227042 53.6395323,68.9153803 C53.6395323,67.4539718 52.5579194,66.5345352 51.2617903,66.5345352 L51.2617903,66.5345352 Z M51.2617903,66.756507 C52.2022742,66.756507 52.4506613,67.9350986 52.4506613,68.9153803 C52.4506613,69.4979155 52.4100161,71.072 51.2617903,71.072 C50.1124355,71.072 50.0729194,69.4979155 50.0729194,68.9153803 C50.0729194,67.9350986 50.3213065,66.756507 51.2617903,66.756507 L51.2617903,66.756507 Z M44.0292097,67.1790423 C44.0224355,67.0314366 44.0156613,66.8635493 44.4446935,66.8635493 C45.5996935,66.8635493 45.7555,68.2911549 45.7555,68.9018592 C45.7555,70.5029859 45.1650161,70.9311549 44.4108226,70.9311549 C44.0890484,70.9311549 44.0292097,70.8105915 44.0292097,70.5435493 L44.0292097,67.1790423 Z M42.3830806,71.1666479 L44.5056613,71.1666479 C46.1980806,71.1125634 46.9240484,70.0669296 46.9240484,68.8331268 C46.9240484,67.8010141 46.3121129,66.6359437 44.4322742,66.6359437 L42.3830806,66.6359437 L42.3830806,66.803831 C42.6461452,66.8297465 42.9408226,66.8443944 42.9408226,67.2522817 L42.9408226,70.5570704 C42.9408226,70.803831 42.8064677,70.9987606 42.3830806,70.9987606 L42.3830806,71.1666479 Z M37.6332419,71.1666479 L39.1574355,71.1666479 L39.1574355,70.9987606 C38.6595323,70.9446761 38.5184032,70.8173521 38.5184032,70.3350986 L38.5184032,67.6534085 L38.5319516,67.6534085 L41.5205,71.288338 L41.7079194,71.288338 L41.7079194,67.3390423 C41.7079194,67.0179155 41.7496935,66.8635493 42.2329194,66.803831 L42.2329194,66.6359437 L40.7888871,66.6359437 L40.7888871,66.803831 C41.3319516,66.8443944 41.414371,67.0641127 41.414371,67.4663662 L41.414371,69.4979155 L41.3996935,69.4979155 L39.069371,66.6359437 L37.6524355,66.6359437 L37.6524355,66.803831 C37.739371,66.803831 37.8477581,66.8218592 38.2237258,67.2849577 L38.2237258,70.4624225 C38.2237258,70.9041127 38.0351774,70.9514366 37.6332419,70.9987606 L37.6332419,71.1666479 Z M34.9969516,66.5345352 C33.7008226,66.5345352 32.6192097,67.4539718 32.6192097,68.9153803 C32.6192097,70.3227042 33.6195323,71.2939718 34.9969516,71.2939718 C36.3732419,71.2939718 37.3735645,70.3227042 37.3735645,68.9153803 C37.3735645,67.4539718 36.2930806,66.5345352 34.9969516,66.5345352 L34.9969516,66.5345352 Z M34.9969516,66.756507 C35.9374355,66.756507 36.1846935,67.9350986 36.1846935,68.9153803 C36.1846935,69.4979155 36.1440484,71.072 34.9969516,71.072 C33.8487258,71.072 33.8080806,69.4979155 33.8080806,68.9153803 C33.8080806,67.9350986 34.0564677,66.756507 34.9969516,66.756507 L34.9969516,66.756507 Z M28.0951774,71.1666479 L30.2572742,71.1666479 C31.6753387,71.1396056 32.1450161,70.4827042 32.1450161,69.9193239 C32.1450161,69.1553803 31.4405,68.8207324 30.8759839,68.7260845 L30.8759839,68.7136901 C31.1582419,68.6269296 31.9169516,68.4511549 31.9169516,67.707493 C31.9169516,66.6629859 30.5474355,66.6359437 30.1703387,66.6359437 L28.0951774,66.6359437 L28.0951774,66.803831 C28.4056613,66.8218592 28.6867903,66.836507 28.6867903,67.2793239 L28.6867903,70.5221408 C28.6867903,70.9311549 28.4711452,70.9581972 28.0951774,70.9987606 L28.0951774,71.1666479 Z M29.761629,67.1655211 C29.7684032,67.0111549 29.7751774,66.836507 30.1172742,66.836507 C30.6614677,66.836507 30.809371,67.232 30.809371,67.7007324 C30.809371,68.3846761 30.6614677,68.6663662 29.761629,68.6663662 L29.761629,67.1655211 Z M29.761629,68.8680563 L29.9625968,68.8680563 C30.3995323,68.888338 30.9900161,68.987493 30.9900161,69.9463662 C30.9900161,70.3542535 30.9030806,70.9514366 30.1646935,70.9514366 C29.8824355,70.9514366 29.761629,70.8432676 29.761629,70.5435493 L29.761629,68.8680563 Z M22.8971129,69.5835493 L23.529371,67.9553803 L24.2079194,69.5835493 L22.8971129,69.5835493 Z M26.2548548,70.9987606 C25.9330806,71.0122817 25.8258226,70.7835493 25.524371,70.0669296 L24.0261452,66.5412958 L23.8375968,66.5412958 L22.3472742,70.2145352 C22.1451774,70.7170704 22.0514677,70.9446761 21.6890484,70.9987606 L21.6890484,71.1666479 L23.0529194,71.1666479 L23.0529194,70.9987606 C22.8237258,70.9841127 22.5008226,70.9649577 22.5008226,70.7103099 C22.5008226,70.6032676 22.6092097,70.3272113 22.796629,69.8460845 L24.3084032,69.8460845 C24.4032419,70.060169 24.616629,70.5570704 24.616629,70.7373521 C24.616629,70.9581972 24.4969516,70.9649577 24.0803387,70.9987606 L24.0803387,71.1666479 L26.2548548,71.1666479 L26.2548548,70.9987606 Z" id="Fill-16" fill="#FFC27F"></path>
                <polygon id="Fill-18" fill="#FFC27F" points="51.3693871 36.1633803 87.6045484 36.1633803 87.6045484 1.42108547e-14 51.3693871 1.42108547e-14"></polygon>
                <polygon id="Fill-20" fill="#6B0736" points="52.5842258 34.9498592 86.3874516 34.9498592 86.3874516 1.21464789 52.5842258 1.21464789"></polygon>
                <mask id="mask-6" fill="white">
                    <use xlink:href="#path-5"></use>
                </mask>
                <g id="Clip-23"></g>
                <path d="M55.3379355,9.63943662 L55.3379355,10.0721127 L55.8945484,10.0721127 C56.371,10.0721127 56.7447097,10.1532394 57.0224516,10.3188732 L57.0224516,10.3188732 C57.2979355,10.48 57.4819677,10.6704225 57.5745484,10.8878873 L57.5745484,10.8878873 C57.6637419,11.1053521 57.7111613,11.6473239 57.7111613,12.5171831 L57.7111613,12.5171831 L57.7111613,23.6473239 C57.7111613,24.5261972 57.6739032,25.0523944 57.5993871,25.2259155 L57.5993871,25.2259155 C57.4774516,25.4940845 57.281,25.7070423 57.0224516,25.8591549 L57.0224516,25.8591549 C56.7627742,26.0169014 56.3834194,26.0923944 55.8945484,26.0923944 L55.8945484,26.0923944 L55.3379355,26.0923944 L55.3379355,26.5261972 L62.8990645,26.5261972 L62.951,26.5261972 C64.0134194,26.5239437 64.7958387,26.4732394 65.294871,26.376338 L65.294871,26.376338 C66.4385806,26.1611268 67.4084194,25.8546479 68.2043871,25.4614085 L68.2043871,25.4614085 C68.9947097,25.0659155 69.6969677,24.5430986 70.3055161,23.8929577 L70.3055161,23.8929577 C70.9084194,23.2405634 71.4018065,22.4123944 71.7856774,21.4152113 L71.7856774,21.4152113 C72.1672903,20.4135211 72.3592258,19.3183099 72.3592258,18.1329577 L72.3592258,18.1329577 C72.3592258,16.4146479 71.9708387,14.8743662 71.1940645,13.5109859 L71.1940645,13.5109859 C70.4150323,12.1532394 69.2747097,11.1346479 67.7742258,10.4630986 L67.7742258,10.4630986 C66.5447097,9.91661972 64.9200323,9.63943662 62.8990645,9.63943662 L62.8990645,9.63943662 L55.3379355,9.63943662 Z M62.2069677,25.3960563 C62.0489032,25.3115493 61.934871,25.1921127 61.8705161,25.0366197 L61.8705161,25.0366197 C61.8027742,24.8766197 61.7689032,24.4495775 61.7689032,23.7532394 L61.7689032,23.7532394 L61.7689032,10.5814085 C63.1587419,10.5746479 64.1545484,10.6974648 64.7540645,10.955493 L64.7540645,10.955493 C65.6064839,11.3205634 66.3019677,12.0090141 66.8427742,13.0219718 L66.8427742,13.0219718 C67.5269677,14.3188732 67.8679355,16.0450704 67.8679355,18.2140845 L67.8679355,18.2140845 C67.8679355,20.9014085 67.3655161,22.8890141 66.3663226,24.1656338 L66.3663226,24.1656338 C65.6347097,25.1121127 64.5711613,25.5830986 63.1801935,25.5830986 L63.1801935,25.5830986 C62.7556774,25.5830986 62.4327742,25.5188732 62.2069677,25.3960563 L62.2069677,25.3960563 Z" id="Fill-22" fill="#FFC27F"></path>
                <mask id="mask-8" fill="white">
                    <use xlink:href="#path-7"></use>
                </mask>
                <g id="Clip-26"></g>
                <path d="M69.4463226,9.63943662 L69.4463226,10.0721127 C70.2197097,10.0721127 70.7480968,10.1442254 71.0326129,10.2850704 L71.0326129,10.2850704 C71.3182581,10.4304225 71.5135806,10.6197183 71.6230968,10.8585915 L71.6230968,10.8585915 C71.7382581,11.096338 71.7935806,11.6732394 71.7935806,12.5949296 L71.7935806,12.5949296 L71.7935806,13.3487324 C72.6064839,14.8270423 72.962129,16.4473239 72.962129,18.1329577 L72.962129,18.1329577 C72.962129,19.3284507 72.7758387,20.5115493 72.3479355,21.6292958 L72.3479355,21.6292958 C72.189871,22.0428169 72.0069677,22.4473239 71.7935806,22.8360563 L71.7935806,22.8360563 L71.7935806,23.5707042 C71.7935806,24.4923944 71.7382581,25.0692958 71.6230968,25.3025352 L71.6230968,25.3025352 C71.5135806,25.5357746 71.3182581,25.7273239 71.036,25.8704225 L71.036,25.8704225 C70.7593871,26.0202817 70.2287419,26.0923944 69.4463226,26.0923944 L69.4463226,26.0923944 L69.4463226,26.5261972 L78.0450323,26.5261972 L78.0450323,26.0923944 C77.2806774,26.0923944 76.7534194,26.0202817 76.4689032,25.8816901 L76.4689032,25.8816901 C76.1787419,25.736338 75.9789032,25.5447887 75.8682581,25.308169 L75.8682581,25.308169 C75.7542258,25.0692958 75.6977742,24.4923944 75.6977742,23.5707042 L75.6977742,23.5707042 L75.6977742,18.884507 C77.6205161,18.884507 78.9855161,18.7876056 79.7893871,18.588169 L79.7893871,18.588169 C80.9884194,18.3030986 81.9277742,17.7723944 82.6097097,16.9915493 L82.6097097,16.9915493 C83.2950323,16.2095775 83.6337419,15.2732394 83.6337419,14.1735211 L83.6337419,14.1735211 C83.6337419,12.8788732 83.1064839,11.7994366 82.0485806,10.9352113 L82.0485806,10.9352113 C80.9929355,10.0721127 79.2497097,9.63943662 76.8211613,9.63943662 L76.8211613,9.63943662 L69.4463226,9.63943662 Z M75.6977742,17.9177465 L75.6977742,10.6073239 L76.2126129,10.6073239 C77.302129,10.6073239 78.1263226,10.9014085 78.6761613,11.4828169 L78.6761613,11.4828169 C79.2237419,12.0630986 79.5003548,12.9814085 79.5003548,14.2377465 L79.5003548,14.2377465 C79.5003548,15.5019718 79.2237419,16.4360563 78.6761613,17.0377465 L78.6761613,17.0377465 C78.1263226,17.6405634 77.3393871,17.9425352 76.3232581,17.9425352 L76.3232581,17.9425352 C76.1832581,17.9425352 75.9732581,17.9346479 75.6977742,17.9177465 L75.6977742,17.9177465 Z" id="Fill-25" fill="#FFC27F"></path>
                <mask id="mask-10" fill="white">
                    <use xlink:href="#path-9"></use>
                </mask>
                <g id="Clip-29"></g>
                <path d="M128.494597,76.6063099 L128.494597,78.8812394 L129.012823,78.8812394 C129.207016,78.8812394 129.347016,78.8710986 129.433952,78.8474366 C129.546855,78.8203944 129.640565,78.7730704 129.713952,78.7054648 C129.788468,78.6389859 129.848306,78.5274366 129.895726,78.3741972 C129.942016,78.2209577 129.966855,78.0102535 129.966855,77.744338 C129.966855,77.4784225 129.942016,77.2756056 129.895726,77.1336338 C129.848306,76.9905352 129.783952,76.8801127 129.698145,76.8012394 C129.614597,76.7212394 129.50621,76.6671549 129.376371,76.6378592 C129.279274,76.6164507 129.089597,76.6063099 128.80621,76.6063099 L128.494597,76.6063099 Z M127.799113,76.0237746 L129.069274,76.0237746 C129.356048,76.0237746 129.573952,76.0463099 129.725242,76.0902535 C129.927339,76.1499718 130.100081,76.2547606 130.243468,76.4068732 C130.387984,76.5578592 130.496371,76.7437746 130.573145,76.9623662 C130.647661,77.1832113 130.684919,77.4536338 130.684919,77.7747606 C130.684919,78.0575775 130.649919,78.3020845 130.57879,78.5071549 C130.494113,78.756169 130.369919,78.9589859 130.210726,79.1133521 C130.089919,79.2305352 129.927339,79.3218028 129.722984,79.3882817 C129.569435,79.4356056 129.365081,79.4603944 129.106532,79.4603944 L127.799113,79.4603944 L127.799113,76.0237746 Z M123.756048,79.4603944 L123.756048,76.0237746 L126.307661,76.0237746 L126.307661,76.6063099 L124.451532,76.6063099 L124.451532,77.368 L126.178952,77.368 L126.178952,77.9449014 L124.451532,77.9449014 L124.451532,78.8812394 L126.374274,78.8812394 L126.374274,79.4603944 L123.756048,79.4603944 Z M120.75621,79.4603944 L120.75621,76.6063099 L119.734435,76.6063099 L119.734435,76.0237746 L122.470081,76.0237746 L122.470081,76.6063099 L121.451694,76.6063099 L121.451694,79.4603944 L120.75621,79.4603944 Z M117.786855,79.4603944 L118.48121,79.4603944 L118.48121,76.0237746 L117.786855,76.0237746 L117.786855,79.4603944 Z M112.953468,79.4603944 L112.953468,76.0237746 L113.994435,76.0237746 L114.61879,78.3685634 L115.236371,76.0237746 L116.278468,76.0237746 L116.278468,79.4603944 L115.632661,79.4603944 L115.632661,76.756169 L114.949597,79.4603944 L114.280081,79.4603944 L113.599274,76.756169 L113.599274,79.4603944 L112.953468,79.4603944 Z M110.76879,79.4603944 L111.463145,79.4603944 L111.463145,76.0237746 L110.76879,76.0237746 L110.76879,79.4603944 Z M107.032823,79.4603944 L107.032823,76.0530704 L107.728306,76.0530704 L107.728306,78.8812394 L109.455726,78.8812394 L109.455726,79.4603944 L107.032823,79.4603944 Z M100.52621,79.4603944 L100.52621,76.0237746 L101.201371,76.0237746 L102.611532,78.3189859 L102.611532,76.0237746 L103.257339,76.0237746 L103.257339,79.4603944 L102.558468,79.4603944 L101.172016,77.2203944 L101.172016,79.4603944 L100.52621,79.4603944 Z M98.0333065,78.1015211 L97.5591129,76.8260282 L97.0939516,78.1015211 L98.0333065,78.1015211 Z M99.313629,79.4603944 L98.5560484,79.4603944 L98.2568548,78.6795493 L96.8794355,78.6795493 L96.5960484,79.4603944 L95.8587903,79.4603944 L97.1989516,76.0237746 L97.9350806,76.0237746 L99.313629,79.4603944 Z M91.9004032,79.4603944 L91.9004032,76.0237746 L92.5958871,76.0237746 L92.5958871,77.3770141 L93.958629,77.3770141 L93.958629,76.0237746 L94.6518548,76.0237746 L94.6518548,79.4603944 L93.958629,79.4603944 L93.958629,77.9572958 L92.5958871,77.9572958 L92.5958871,79.4603944 L91.9004032,79.4603944 Z M87.6766935,78.3426479 L88.3529839,78.276169 C88.3925,78.5037746 88.4760484,78.6705352 88.601371,78.7764507 C88.7244355,78.8823662 88.8926613,78.9353239 89.1037903,78.9353239 C89.3284677,78.9353239 89.4966935,78.888 89.6107258,78.7922254 C89.723629,78.6987042 89.7812097,78.5882817 89.7812097,78.4620845 C89.7812097,78.379831 89.756371,78.3122254 89.7078226,78.2547606 C89.6615323,78.1972958 89.5779839,78.1477183 89.4594355,78.1060282 C89.3781452,78.0778592 89.1918548,78.0271549 88.9028226,77.956169 C88.531371,77.8637746 88.2683065,77.7510986 88.1170161,77.6158873 C87.9070161,77.4277183 87.8008871,77.1956056 87.8008871,76.9240563 C87.8008871,76.7494085 87.8505645,76.5860282 87.9499194,76.4339155 C88.0492742,76.2818028 88.1937903,76.1646197 88.3800806,76.0857465 C88.5675,76.0068732 88.7933065,75.9674366 89.056371,75.9674366 C89.4899194,75.9674366 89.8150806,76.0609577 90.0341129,76.2502535 C90.2508871,76.4395493 90.3660484,76.6908169 90.3773387,77.0063099 L89.6829839,77.0378592 C89.653629,76.8609577 89.5892742,76.732507 89.4899194,76.6570141 C89.3928226,76.5792676 89.2460484,76.539831 89.0507258,76.539831 C88.848629,76.539831 88.6905645,76.5815211 88.5765323,76.6649014 C88.5020161,76.7178592 88.4658871,76.7888451 88.4658871,76.8767324 C88.4658871,76.9589859 88.4997581,77.0288451 88.5697581,77.0874366 C88.6566935,77.1595493 88.8689516,77.236169 89.2076613,77.316169 C89.546371,77.3950423 89.7958871,77.4772958 89.9573387,77.5629296 C90.1199194,77.6485634 90.246371,77.763493 90.3389516,77.9122254 C90.4304032,78.0609577 90.4755645,78.2423662 90.4755645,78.459831 C90.4755645,78.6558873 90.421371,78.8406761 90.3118548,79.0130704 C90.2023387,79.184338 90.0465323,79.311662 89.8466935,79.396169 C89.6457258,79.4795493 89.3962097,79.5212394 89.0958871,79.5212394 C88.6623387,79.5212394 88.3281452,79.4209577 88.0955645,79.2203944 C87.8618548,79.019831 87.7218548,78.7268732 87.6766935,78.3426479 L87.6766935,78.3426479 Z M83.5387903,76.0237746 L84.2331452,76.0237746 L84.2331452,77.8863099 C84.2331452,78.1792676 84.2421774,78.3719437 84.2579839,78.459831 C84.2884677,78.6006761 84.3595968,78.7133521 84.471371,78.7978592 C84.5831452,78.883493 84.7355645,78.9263099 84.9308871,78.9263099 C85.1273387,78.9263099 85.276371,78.8857465 85.3768548,78.8057465 C85.4762097,78.7257465 85.5371774,78.6265915 85.5575,78.5082817 C85.5766935,78.3922254 85.5879839,78.1972958 85.5879839,77.9246197 L85.5879839,76.0237746 L86.2823387,76.0237746 L86.2823387,77.8288451 C86.2823387,78.2423662 86.2642742,78.5330704 86.2258871,78.7032113 C86.188629,78.8744789 86.1197581,79.0175775 86.0192742,79.1347606 C85.9176613,79.2530704 85.7821774,79.3454648 85.6139516,79.4141972 C85.4445968,79.4851831 85.2233065,79.5189859 84.9523387,79.5189859 C84.6226613,79.5189859 84.3731452,79.4818028 84.2037903,79.4040563 C84.0321774,79.3285634 83.8989516,79.2305352 83.8007258,79.1099718 C83.7025,78.9894085 83.6370161,78.8620845 83.6054032,78.7291268 C83.5602419,78.5319437 83.5387903,78.2423662 83.5387903,77.8570141 L83.5387903,76.0237746 Z M79.2337903,79.4603944 L79.2337903,76.0237746 L79.9292742,76.0237746 L79.9292742,77.3770141 L81.2908871,77.3770141 L81.2908871,76.0237746 L81.986371,76.0237746 L81.986371,79.4603944 L81.2908871,79.4603944 L81.2908871,77.9572958 L79.9292742,77.9572958 L79.9292742,79.4603944 L79.2337903,79.4603944 Z M75.6197581,77.9629296 L75.6197581,78.8812394 L76.2610484,78.8812394 C76.5128226,78.8812394 76.6720161,78.8756056 76.738629,78.8609577 C76.8425,78.8418028 76.9271774,78.7956056 76.9915323,78.723493 C77.0558871,78.6502535 77.0897581,78.5544789 77.0897581,78.431662 C77.0897581,78.328 77.0637903,78.2412394 77.0141129,78.1702535 C76.9633065,78.0970141 76.8910484,78.0440563 76.7962097,78.0113803 C76.7025,77.9787042 76.4958871,77.9629296 76.1797581,77.9629296 L75.6197581,77.9629296 Z M75.6197581,76.596169 L75.6197581,77.3905352 L76.073629,77.3905352 C76.3468548,77.3905352 76.5139516,77.3860282 76.5794355,77.3792676 C76.6979839,77.3657465 76.7916935,77.3240563 76.8605645,77.2564507 C76.9271774,77.1888451 76.9610484,77.0987042 76.9610484,76.9882817 C76.9610484,76.8812394 76.9328226,76.7944789 76.8729839,76.728 C76.8154032,76.6615211 76.7273387,76.6232113 76.6121774,76.6085634 C76.5433065,76.6006761 76.3468548,76.596169 76.0183065,76.596169 L75.6197581,76.596169 Z M74.9242742,76.0237746 L76.3005645,76.0237746 C76.5726613,76.0237746 76.7758871,76.0350423 76.9102419,76.059831 C77.0434677,76.0812394 77.1631452,76.1285634 77.2692742,76.2006761 C77.3742742,76.2727887 77.4623387,76.3674366 77.5323387,76.488 C77.6023387,76.6074366 77.6384677,76.7415211 77.6384677,76.8902535 C77.6384677,77.0502535 77.5944355,77.1978592 77.508629,77.3330704 C77.4205645,77.4671549 77.3031452,77.5685634 77.1541129,77.6350423 C77.3641129,77.6958873 77.5255645,77.8006761 77.6384677,77.9449014 C77.751371,78.092507 77.8066935,78.2671549 77.8066935,78.4632113 C77.8066935,78.619831 77.7716935,78.7719437 77.6983065,78.9206761 C77.6249194,79.0682817 77.5255645,79.1865915 77.3991129,79.2733521 C77.2749194,79.3612394 77.1191129,79.4164507 76.9339516,79.4378592 C76.8176613,79.4491268 76.5376613,79.4570141 76.0950806,79.4603944 L74.9242742,79.4603944 L74.9242742,76.0237746 Z M72.4358871,78.1015211 L71.9605645,76.8260282 L71.4965323,78.1015211 L72.4358871,78.1015211 Z M73.7150806,79.4603944 L72.9597581,79.4603944 L72.6583065,78.6795493 L71.2820161,78.6795493 L70.998629,79.4603944 L70.261371,79.4603944 L71.6015323,76.0237746 L72.3376613,76.0237746 L73.7150806,79.4603944 Z M66.4260484,79.4603944 L67.0865323,79.4603944 L67.0865323,78.8012394 L66.4260484,78.8012394 L66.4260484,79.4603944 Z M63.7005645,76.6063099 L63.7005645,77.579831 L64.0810484,77.579831 C64.3542742,77.579831 64.5383065,77.5629296 64.6308871,77.5268732 C64.7223387,77.4908169 64.7945968,77.4344789 64.8476613,77.3578592 C64.8995968,77.2812394 64.9255645,77.1933521 64.9255645,77.0908169 C64.9255645,76.9657465 64.8883065,76.8632113 64.8149194,76.7809577 C64.7426613,76.699831 64.6489516,76.6491268 64.5371774,76.6299718 C64.4525,76.6130704 64.2865323,76.6063099 64.0358871,76.6063099 L63.7005645,76.6063099 Z M63.0050806,79.4603944 L63.0050806,76.0237746 L64.1194355,76.0237746 C64.5428226,76.0237746 64.8183065,76.0418028 64.9458871,76.0767324 C65.1434677,76.1274366 65.3094355,76.2401127 65.4426613,76.412507 C65.5758871,76.5849014 65.6425,76.8091268 65.6425,77.0806761 C65.6425,77.292507 65.6041129,77.4705352 65.5273387,77.6136338 C65.4505645,77.7567324 65.3523387,77.8694085 65.2349194,77.9527887 C65.116371,78.0350423 64.9966935,78.088 64.8747581,78.1150423 C64.7076613,78.1477183 64.4683065,78.1646197 64.1533065,78.1646197 L63.7005645,78.1646197 L63.7005645,79.4603944 L63.0050806,79.4603944 Z M60.8260484,79.4603944 L61.4854032,79.4603944 L61.4854032,78.8012394 L60.8260484,78.8012394 L60.8260484,79.4603944 Z M57.2142742,76.6063099 L57.2142742,78.8812394 L57.7325,78.8812394 C57.9255645,78.8812394 58.0666935,78.8710986 58.1525,78.8474366 C58.2654032,78.8203944 58.3579839,78.7730704 58.433629,78.7054648 C58.5081452,78.6389859 58.5679839,78.5274366 58.6154032,78.3741972 C58.6616935,78.2209577 58.6854032,78.0102535 58.6854032,77.744338 C58.6854032,77.4784225 58.6616935,77.2756056 58.6154032,77.1336338 C58.5679839,76.9905352 58.5025,76.8801127 58.4189516,76.8012394 C58.3331452,76.7212394 58.2258871,76.6671549 58.0960484,76.6378592 C57.9989516,76.6164507 57.8092742,76.6063099 57.5247581,76.6063099 L57.2142742,76.6063099 Z M56.5187903,76.0237746 L57.7889516,76.0237746 C58.0745968,76.0237746 58.293629,76.0463099 58.4437903,76.0902535 C58.6458871,76.1499718 58.818629,76.2547606 58.9631452,76.4068732 C59.1065323,76.5578592 59.2171774,76.7437746 59.2916935,76.9623662 C59.3662097,77.1832113 59.4045968,77.4536338 59.4045968,77.7747606 C59.4045968,78.0575775 59.3684677,78.3020845 59.2984677,78.5071549 C59.2126613,78.756169 59.0895968,78.9589859 58.9304032,79.1133521 C58.8095968,79.2305352 58.6470161,79.3218028 58.4415323,79.3882817 C58.2891129,79.4356056 58.0825,79.4603944 57.8262097,79.4603944 L56.5187903,79.4603944 L56.5187903,76.0237746 Z M50.5642742,79.4603944 L50.5642742,76.0237746 L52.9250806,76.0237746 L52.9250806,76.6063099 L51.2608871,76.6063099 L51.2608871,77.419831 L52.6981452,77.419831 L52.6981452,78.0001127 L51.2608871,78.0001127 L51.2608871,79.4603944 L50.5642742,79.4603944 Z M46.5562097,77.739831 C46.5562097,78.1296901 46.6476613,78.4237746 46.8271774,78.624338 C47.0078226,78.8260282 47.2358871,78.9263099 47.513629,78.9263099 C47.7902419,78.9263099 48.0171774,78.8271549 48.1944355,78.6265915 C48.3728226,78.4271549 48.4608871,78.1296901 48.4608871,77.7308169 C48.4608871,77.3364507 48.3750806,77.0446197 48.2023387,76.8496901 C48.0295968,76.6558873 47.7992742,76.5589859 47.513629,76.5589859 C47.2268548,76.5589859 46.9954032,76.6570141 46.8204032,76.8530704 C46.6454032,77.0502535 46.5562097,77.344338 46.5562097,77.739831 L46.5562097,77.739831 Z M45.8415323,77.763493 C45.8415323,77.4130704 45.8934677,77.1201127 45.9984677,76.8812394 C46.076371,76.7077183 46.183629,76.5499718 46.3191129,76.4113803 C46.4545968,76.2727887 46.6025,76.1691268 46.7639516,76.1026479 C46.9784677,76.0113803 47.2257258,75.9674366 47.5057258,75.9674366 C48.0137903,75.9674366 48.4191129,76.1229296 48.7239516,76.4372958 C49.0276613,76.751662 49.1812097,77.1877183 49.1812097,77.7465915 C49.1812097,78.3020845 49.0287903,78.7358873 48.7273387,79.0491268 C48.4247581,79.3612394 48.0205645,79.5189859 47.5158871,79.5189859 C47.0033065,79.5189859 46.5968548,79.3623662 46.2942742,79.052507 C45.9928226,78.7403944 45.8415323,78.3099718 45.8415323,77.763493 L45.8415323,77.763493 Z M39.7515323,79.4603944 L39.7515323,76.0237746 L42.3042742,76.0237746 L42.3042742,76.6063099 L40.4470161,76.6063099 L40.4470161,77.368 L42.1744355,77.368 L42.1744355,77.9449014 L40.4470161,77.9449014 L40.4470161,78.8812394 L42.3697581,78.8812394 L42.3697581,79.4603944 L39.7515323,79.4603944 Z M36.138629,77.4772958 L36.6523387,77.4772958 C36.9854032,77.4772958 37.1942742,77.4637746 37.2778226,77.4356056 C37.3602419,77.4074366 37.4257258,77.3589859 37.4731452,77.2902535 C37.5194355,77.2215211 37.5431452,77.1358873 37.5431452,77.0322254 C37.5431452,76.916169 37.5115323,76.8226479 37.4505645,76.7527887 C37.3884677,76.6806761 37.3015323,76.6367324 37.1875,76.6175775 C37.1321774,76.6096901 36.9628226,76.6063099 36.6805645,76.6063099 L36.138629,76.6063099 L36.138629,77.4772958 Z M35.4431452,79.4603944 L35.4431452,76.0237746 L36.906371,76.0237746 C37.2755645,76.0237746 37.5408871,76.0564507 37.7091129,76.1172958 C37.8750806,76.1781408 38.0083065,76.2896901 38.1099194,76.4451831 C38.2092742,76.6051831 38.2589516,76.784338 38.2589516,76.9882817 C38.2589516,77.2451831 38.1833065,77.4592676 38.0308871,77.6260282 C37.8795968,77.7939155 37.6526613,77.899831 37.3500806,77.9437746 C37.501371,78.031662 37.6255645,78.1285634 37.7226613,78.2322254 C37.8208871,78.3370141 37.9518548,78.5229296 38.1178226,78.7899718 L38.5389516,79.4603944 L37.7079839,79.4603944 L37.2055645,78.7122254 C37.0260484,78.4451831 36.9041129,78.2772958 36.838629,78.2074366 C36.7731452,78.1375775 36.7031452,78.0902535 36.6297581,78.064338 C36.5552419,78.0384225 36.4389516,78.0260282 36.2797581,78.0260282 L36.138629,78.0260282 L36.138629,79.4603944 L35.4431452,79.4603944 Z M31.1268548,76.0237746 L31.8212097,76.0237746 L31.8212097,77.8863099 C31.8212097,78.1792676 31.8302419,78.3719437 31.8471774,78.459831 C31.8765323,78.6006761 31.9487903,78.7133521 32.0594355,78.7978592 C32.1712097,78.883493 32.3247581,78.9263099 32.5189516,78.9263099 C32.7154032,78.9263099 32.8644355,78.8857465 32.9649194,78.8057465 C33.0654032,78.7257465 33.1252419,78.6265915 33.1444355,78.5082817 C33.1658871,78.3922254 33.1760484,78.1972958 33.1760484,77.9246197 L33.1760484,76.0237746 L33.8704032,76.0237746 L33.8704032,77.8288451 C33.8704032,78.2423662 33.8523387,78.5330704 33.8150806,78.7032113 C33.7766935,78.8744789 33.7078226,79.0175775 33.6073387,79.1347606 C33.5068548,79.2530704 33.371371,79.3454648 33.2020161,79.4141972 C33.0337903,79.4851831 32.811371,79.5189859 32.5392742,79.5189859 C32.2107258,79.5189859 31.9623387,79.4818028 31.7918548,79.4040563 C31.621371,79.3285634 31.4881452,79.2305352 31.3899194,79.1099718 C31.2905645,78.9894085 31.2250806,78.8620845 31.1945968,78.7291268 C31.1494355,78.5319437 31.1268548,78.2423662 31.1268548,77.8570141 L31.1268548,76.0237746 Z M28.1292742,79.4603944 L28.1292742,76.6063099 L27.1097581,76.6063099 L27.1097581,76.0237746 L29.8454032,76.0237746 L29.8454032,76.6063099 L28.8258871,76.6063099 L28.8258871,79.4603944 L28.1292742,79.4603944 Z M23.0520161,79.4603944 L23.0520161,76.0237746 L23.7283065,76.0237746 L25.1373387,78.3189859 L25.1373387,76.0237746 L25.7831452,76.0237746 L25.7831452,79.4603944 L25.0854032,79.4603944 L23.6978226,77.2203944 L23.6978226,79.4603944 L23.0520161,79.4603944 Z M19.0010484,79.4603944 L19.0010484,76.0237746 L21.5526613,76.0237746 L21.5526613,76.6063099 L19.6942742,76.6063099 L19.6942742,77.368 L21.4228226,77.368 L21.4228226,77.9449014 L19.6942742,77.9449014 L19.6942742,78.8812394 L21.6181452,78.8812394 L21.6181452,79.4603944 L19.0010484,79.4603944 Z M15.8329839,79.4603944 L14.6023387,76.0237746 L15.3565323,76.0237746 L16.2270161,78.568 L17.0704032,76.0237746 L17.8076613,76.0237746 L16.5747581,79.4603944 L15.8329839,79.4603944 Z M10.4621774,78.1015211 L9.98798387,76.8260282 L9.52282258,78.1015211 L10.4621774,78.1015211 Z M11.7425,79.4603944 L10.9849194,79.4603944 L10.6857258,78.6795493 L9.30943548,78.6795493 L9.02604839,79.4603944 L8.28766129,79.4603944 L9.62895161,76.0237746 L10.3639516,76.0237746 L11.7425,79.4603944 Z" id="Fill-28" fill="#FFFFFF" mask="url(#mask-10)"></path>
            </g>
        </g>
    </g>
</svg>