<?xml version="1.0" encoding="UTF-8"?>
<svg width="18px" height="18px" viewBox="0 0 18 18" version="1.1" xmlns="http://www.w3.org/2000/svg" xmlns:xlink="http://www.w3.org/1999/xlink">
    <!-- Generator: Sketch 55.2 (78181) - https://sketchapp.com -->
    <title>Shape</title>
    <desc>Created with Sketch.</desc>
    <g id="Final-pages" stroke="none" stroke-width="1" fill="none" fill-rule="evenodd" opacity="0.545875186">
        <g id="1-DP-Home-page" transform="translate(-191.000000, -42.000000)" fill="#FFFFFF" fill-rule="nonzero">
            <g id="Group-16" transform="translate(170.000000, 29.000000)">
                <path d="M38.1139978,29.395148 L33.8299688,24.9395429 C34.9314679,23.6301303 35.5349858,21.9826212 35.5349858,20.2674929 C35.5349858,16.2602605 32.2747253,13 28.2674929,13 C24.2602605,13 21,16.2602605 21,20.2674929 C21,24.2747253 24.2602605,27.5349858 28.2674929,27.5349858 C29.7718639,27.5349858 31.2054559,27.0812414 32.4311344,26.2198855 L36.7477092,30.7093003 C36.9281326,30.8966752 37.1708036,31 37.4308535,31 C37.6770003,31 37.910508,30.9061545 38.0877717,30.7355265 C38.4644174,30.3730997 38.4764245,29.7721097 38.1139978,29.395148 Z M28.2674929,14.8958677 C31.2294702,14.8958677 33.6391181,17.3055156 33.6391181,20.2674929 C33.6391181,23.2294702 31.2294702,25.6391181 28.2674929,25.6391181 C25.3055156,25.6391181 22.8958677,23.2294702 22.8958677,20.2674929 C22.8958677,17.3055156 25.3055156,14.8958677 28.2674929,14.8958677 Z" id="Shape"></path>
            </g>
        </g>
    </g>
</svg>